<?xml version="1.0" encoding="utf-8"?>
<!-- Generator: Adobe Illustrator 24.3.0, SVG Export Plug-In . SVG Version: 6.00 Build 0)  -->
<svg version="1.1" id="Calque_1" xmlns="http://www.w3.org/2000/svg" xmlns:xlink="http://www.w3.org/1999/xlink" x="0px" y="0px"
	 viewBox="0 0 1735.6 957.5" style="enable-background:new 0 0 1735.6 957.5;" xml:space="preserve">
<style type="text/css">
	.st0{fill:#F7A257;}
	.st1{fill:#EE5055;}
	.st2{fill:#8DB8D7;}
	.st3{fill:#FED928;}
	.st4{fill:#77C7A4;}
	.st5{display:none;}
	.st6{display:inline;fill:#EE5055;}
	.st7{display:inline;fill:#F7A257;}
	.st8{display:inline;fill:#FED928;}
	.st9{display:inline;fill:#77C7A4;}
	.st10{display:inline;fill:#8DB8D7;}
	.st11{fill:#4C4C4C;stroke:#333333;stroke-width:0.75;stroke-miterlimit:10;}
</style>
<g id="Calque_2_1_">
	<path class="st0" d="M1327,460.6L1327,460.6c5.7-54.3,0.4-105.3-6-139.6c-3.1-16.6-11.2-31-14.7-40.4c-9.4-24.9-69.8-55-69.8-55
		c-6.6-2.5-7.4-15-5.8-20c0.1-0.2,2-14.1,2.9-18.2c0.3,0.2,0.6,0.3,0.9,0.3c2.1,0,3.8-4,3.8-9c0-4.4-1.3-8.1-3.1-8.9l-1-7.8
		c-2.1-15.5-17.7-19.7-26.5-19.7s-24.6,2.5-27,19.7l-0.6,7.7c-1.8,0.6-3.2,4.4-3.2,8.9c0,5,1.7,9,3.8,9c0.3,0,0.6-0.1,0.9-0.3
		c0.8,3.5,2.9,17.9,3,18.1c1.6,5,0.8,17.5-5.8,20c0,0-60.4,30.1-69.8,55c-3.5,9.4-11.6,23.8-14.7,40.4c-6.4,34.4-11.8,85.4-6,139.6
		l0,0c0,0-6.3,27.7-4.8,41.7c0.6,6.1,1.8,10.3,10.2,22.7c0,0,6.6,5.8,4.7-1.8l-2.5-19.1l7.7-13c0,0,2.2,7.9,0.7,13l-1.5,7
		c0,0,5.5,2.4,8.7-5.2c0,0,6.8-12.2-1.7-33.5c-0.4-1,1-11.9,1-11.9c3.9-7.9,17.9-47.4,18-80.7l10.9-61.5c0,0-8.7,61.8-8.9,94.1
		c0,0-5.8,60.3,7.6,109.6c0,0,1.7,30.7,4.8,47.9c0,0-9.3,52.2,5.4,101.5l3.5,22.5c0.3,5.6,1.5,8.9,0.5,11.5c-1.5,4-1.7,8.8-1.7,8.8
		c-3.5,9.4-12.9,21.4-16.8,25.1c-8.4,7.9,11.3,17.2,26,11.1c4.9-2,7.8-10.8,9.8-17.5c1.2-4.2,8.5-12.4,10.9-16
		c4.1-6.2,1.4-15.9,1.3-18.7l0,0c0.2-0.3,0.3-0.6,0.3-1c5.3-47.7,19.6-93.1,15-119.6c0,0,8-24.3,10.3-58.5
		c2.2,34.1,10.3,58.5,10.3,58.5c-4.7,26.4,9.7,71.8,15,119.6c0,0.3,0.2,0.7,0.3,1l0,0c-0.1,2.8-2.8,12.4,1.3,18.7
		c2.4,3.6,9.6,11.8,10.9,16c1.9,6.7,4.9,15.5,9.8,17.5c14.7,6,34.4-3.2,26-11.1c-3.9-3.6-13.3-15.6-16.8-25.1c0,0-0.3-4.8-1.7-8.8
		c-0.9-2.6,0.2-5.8,0.5-11.5l3.5-22.5c14.7-49.3,5.4-101.5,5.4-101.5c3.1-17.2,4.8-47.9,4.8-47.9c13.4-49.3,7.6-109.6,7.6-109.6
		c-0.2-32.3-8.9-94.1-8.9-94.1l10.9,61.5c0.1,33.3,14.1,72.8,18,80.7c0,0,1.4,10.9,1,11.9c-8.5,21.3-1.7,33.5-1.7,33.5
		c3.3,7.6,8.7,5.2,8.7,5.2l-1.5-7c-1.5-5.1,0.7-13,0.7-13l7.7,13L1317,523c-1.8,7.6,4.7,1.8,4.7,1.8c8.4-12.4,9.6-16.6,10.2-22.7
		C1333.3,488.3,1327,460.6,1327,460.6z"/>
	<path class="st1" d="M1662.9,460.6L1662.9,460.6c5.7-54.3,0.4-105.3-6-139.6c-3.1-16.6-14.6-39.4-18.2-48.8
		c-9.4-24.9-75.9-46.6-75.9-46.6c-6.6-2.5-17-15-15.4-20c0.1-0.2,2-14.1,2.9-18.2c0.3,0.2,0.6,0.3,0.9,0.3c2.1,0,3.8-4,3.8-9
		c0-4.4-1.3-8.1-3.1-8.9l-1-7.8c-2.1-15.5-17.7-19.7-26.5-19.7s-24.6,2.5-27,19.7l-0.6,7.7c-1.8,0.6-3.2,4.4-3.2,8.9
		c0,5,1.7,9,3.8,9c0.3,0,0.6-0.1,0.9-0.3c0.8,3.5,2.9,17.9,3,18.1c1.6,5-8.8,17.5-15.4,20c0,0-69.4,21.7-78.8,46.6
		c-3.5,9.4-12.2,32.2-15.3,48.8c-6.4,34.4-11.8,85.4-6,139.6l0,0c0,0-6.3,27.7-4.8,41.7c0.6,6.1,1.8,10.3,10.2,22.7
		c0,0,6.6,5.8,4.7-1.8l-2.5-19.1l7.7-13c0,0,2.2,7.9,0.7,13l-1.5,7c0,0,5.5,2.4,8.7-5.2c0,0,6.8-12.2-1.7-33.5c-0.4-1,1-11.9,1-11.9
		c3.9-7.9,17.9-47.4,18-80.7l10.9-61.5c0,0-11,61.4-0.6,92.8c0,0-18.1,46.9-4.8,96.2c0,0-4.8,36.2,8.8,62.6c0,0,9.8,52.2,24.5,101.5
		l3.5,22.5c0.3,5.6,1.5,8.9,0.5,11.5c-1.5,4-1.7,8.8-1.7,8.8c-3.5,9.4-12.9,21.4-16.8,25.1c-8.4,7.9,11.3,17.2,26,11.1
		c4.9-2,7.8-10.8,9.8-17.5c1.2-4.2,8.5-12.4,10.9-16c4.1-6.2,1.4-15.9,1.3-18.7l0,0c0.2-0.3,0.3-0.6,0.3-1
		c5.3-47.7,27-122.6,22.4-149h4.8c-6.7,45.7,18.1,101.3,23.4,149c0,0.3,0.2,0.7,0.3,1l0,0c-0.1,2.8-2.8,12.4,1.3,18.7
		c2.4,3.6,9.6,11.8,10.9,16c1.9,6.7,4.9,15.5,9.8,17.5c14.7,6,34.4-3.2,26-11.1c-3.9-3.6-13.3-15.6-16.8-25.1c0,0-0.3-4.8-1.7-8.8
		c-0.9-2.6,0.2-5.8,0.5-11.5l3.5-22.5c14.7-49.3,24.5-101.5,24.5-101.5c10.7-21.6,5-55,5-55c23.8-53.4-1-106.7-1-106.7
		c11.4-31.4-0.5-89.9-0.5-89.9l10.9,61.5c0.1,33.3,14.1,72.8,18,80.7c0,0,1.4,10.9,1,11.9c-8.5,21.3-1.7,33.5-1.7,33.5
		c3.3,7.6,8.7,5.2,8.7,5.2l-1.5-7c-1.5-5.1,0.7-13,0.7-13l7.7,13l-2.5,19.1c-1.8,7.6,4.7,1.8,4.7,1.8c8.4-12.4,9.6-16.6,10.2-22.7
		C1669.2,488.3,1662.9,460.6,1662.9,460.6z"/>
	<path class="st2" d="M336.5,458.9l-0.4-11.9v-13.5c-0.2-20.1,2.8-46.9,0.6-62.5c-1.4-10.2-5.4-23.8-5.4-32
		c-0.3-38.8,6.8-61.2-0.3-79.4c-6.8-17.5-27.1-19.3-27.1-19.3c-9.6-0.9-26.4-8.9-26.4-8.9c-3.2-4.3-6.8-19.1-5.2-25.4
		c0.5-1.8,3-4.5,4.2-6.1c1.7-2.3,3.3-8.4,4.3-13c0.3,0.2,0.6,0.3,0.9,0.3c2,0,3.6-4.2,3.6-9.4c0-4.6-1.3-8.4-2.9-9.2l-0.9-8.1
		c-2-16.1-16.9-20.5-25.4-20.5s-23.5,2.6-25.9,20.5l-0.6,8c-1.8,0.7-3.1,4.5-3.1,9.3c0,5.2,1.6,9.4,3.6,9.4c0.3,0,0.6-0.1,0.8-0.3
		c0.8,4,1.9,9.1,2.8,12c0.6,2,3.9,5.4,4.6,7.5c1.9,6-0.5,20.6-3.7,24.9c0,0-16.8,8.1-26.4,8.9c0,0-20.3,1.7-27.1,19.3
		c-7.1,18.3,1.9,40.7,1.6,79.4c-0.1,8.2-4,21.9-5.4,32c-2.2,15.6,0.9,42.4,0.6,62.5v13.5l-0.4,11.9l-5.4,37.2c0,0,1.6,10.7,8.8,23.7
		c0,0,5.7,6,4.1-1.9l-2.2-19.9l6.6-13.6c0,0,1.9,8.2,0.6,13.6l-1.3,7.3c0,0,4.7,2.5,7.6-5.4c0,0,6.9-21.1-2.2-37.2l2-15.9l5.2-57.8
		c0,0,4.1-10.5,2.8-28.5c0,0,5.9-15.3,3.8-68.1c-0.1-2.4-0.2-3.8-0.2-3.8c0.1,1,0.2,2.3,0.2,3.8c0.7,13.9,7.8,62.7,7.2,94.4
		c-0.2,13.2,2.9,19.3,0.7,38.7c-3.1,27.3-9.6,50.8-4.3,79.4c0,0-2.3,31.8,0.2,44.4c0,0-0.8,26-0.8,36.3c0,16.5,1.4,32.1,1.8,46.1
		c0.3,10,10.9,63.3,7.2,75.2c-1.3,4-2,9.1-2,9.1c-3,9.4-12.5,19.8-15.9,23.4c-7.3,7.9,9.8,17.1,22.6,11.1c4.2-2,6.8-10.8,8.5-17.4
		c1.1-4.2,8.3-11.9,9.4-15.9c2.6-9-1.9-18-1.9-20.7c-0.3-13.9,1.4-31.6,3.8-42.5c2.9-13.1,1-23.8,0-53.5c-0.3-10.9,2.9-17.8,1.9-42
		c-0.8-20.6,7.8-81,7.1-101.8c0,0,1,0.3,2.5,0.3c1.2,0,2.5-0.3,2.5-0.3c-0.6,20.8,7.9,81.3,7.1,101.8c-1,24.2,2.3,31.1,1.9,42
		c-1,29.7-2.9,40.4,0,53.5c2.4,10.9,4.2,28.7,3.8,42.5c-0.1,2.8-4.5,11.8-1.9,20.7c1.1,4,8.4,11.7,9.4,15.9
		c1.7,6.6,4.3,15.4,8.5,17.4c12.8,6,29.9-3.2,22.6-11.1c-3.4-3.6-12.8-14-15.9-23.4c0,0-0.8-5.1-2-9.1c-3.8-11.9,6.9-65.2,7.2-75.2
		c0.4-14.1,1.8-29.6,1.8-46.1c0-10.3-0.8-36.3-0.8-36.3c2.6-12.6,0.2-44.4,0.2-44.4c5.3-28.6-1.1-52.1-4.3-79.4
		c-2.2-19.4,0.9-23.5,0.7-36.8c-0.5-31.7,6.5-82.4,7.2-96.3c0-1.6,0.1-2.9,0.2-3.8c0,0-0.1,1.4-0.2,3.8c-2,52.8,4.8,70.9,4.8,70.9
		c-1.3,17.9,2.8,28.5,2.8,28.5l6.2,54.9l2,15.9c-9.2,16.1-2.2,37.2-2.2,37.2c2.8,7.9,7.6,5.4,7.6,5.4l-1.3-7.3
		c-1.3-5.4,0.6-13.6,0.6-13.6l6.6,13.6l-2.2,19.9c-1.6,7.9,4.1,1.9,4.1,1.9c7.3-12.9,8.8-23.7,8.8-23.7L336.5,458.9z"/>
	<path class="st3" d="M977.9,458.9l-0.4-11.9v-13.5c-0.2-20.1,6.7-46.9,4.5-62.4c-1.4-10.2-5.4-23.8-5.4-32
		c-0.3-38.8-3.8-61.2-10.9-79.4c-6.8-17.5-25.2-23.1-25.2-23.1c-9.6-0.9-26.4-8.9-26.4-8.9c-3.2-4.3-8.7-15.3-7.1-21.6
		c0.5-1.8,3-4.5,4.2-6.1c1.7-2.3,3.3-8.4,4.3-13c0.3,0.2,0.6,0.3,0.9,0.3c2,0,3.6-4.2,3.6-9.4c0-4.6-1.3-8.4-2.9-9.2l-0.9-8.1
		c-2-16.1-16.9-20.5-25.4-20.5s-23.5,2.6-25.9,20.5l-0.6,8c-1.8,0.7-3.1,4.5-3.1,9.3c0,5.2,1.6,9.4,3.6,9.4c0.3,0,0.6-0.1,0.8-0.3
		c0.8,4,1.9,9.1,2.8,12c0.6,2,3.9,5.4,4.6,7.5c1.9,6-3.4,15.8-6.6,20.1c0,0-16.8,8.1-26.4,8.9c0,0-17.4,6.5-24.2,24.1
		c-7.1,18.3-10.6,40.7-10.9,79.4c-0.1,8.2-4,21.9-5.4,32c-2.2,15.6,4.7,42.4,4.5,62.4v13.5l-0.4,11.9l-5.4,37.2
		c0,0,1.6,10.7,8.8,23.7c0,0,5.7,6,4.1-1.9l-2.2-19.9l6.6-13.6c0,0,1.9,8.2,0.6,13.6l-1.3,7.3c0,0,4.7,2.5,7.6-5.4
		c0,0,6.9-21.1-2.2-37.2l2-15.9l7.7-58.5c0,0,8.9-45.9,7.6-63.8c0,0-0.1,35.2,0.5,33.2c-0.8,10.3-1.4,20.4-1.5,29.2
		c-0.2,13.2-3.8,19.3-6.1,38.7c-3.1,27.3-2.9,50.8,2.4,79.4c0,0,3.4,31.8,6,44.4c0,0,3,26,3,36.3c0,16.5,1.4,32.1,1.8,46.1
		c0.3,10,14.8,63.3,11,75.2c-1.3,4-2,9.1-2,9.1c-3,9.4-12.5,19.8-15.9,23.4c-7.3,7.9,9.8,17.1,22.6,11.1c4.2-2,6.8-10.8,8.5-17.4
		c1.1-4.2,8.3-11.9,9.4-15.9c2.6-9-1.9-18-1.9-20.7c-0.3-13.9,1.4-31.6,3.8-42.5c2.9-13.1,1-23.8,0-53.5c-0.3-10.9,6.7-17.8,5.8-42
		c-0.8-20.6,4.8-49.6,4.2-70.5c0,0,0.1-2.3,1.6-2.3c1.2,0,1.3,2.3,1.3,2.3c-0.6,20.8,5.3,49.9,4.5,70.5c-1,24.2,6.1,31.1,5.8,42
		c-1,29.7-2.9,40.4,0,53.5c2.4,10.9,4.2,28.7,3.8,42.5c-0.1,2.8-4.5,11.8-1.9,20.7c1.1,4,8.4,11.7,9.4,15.9
		c1.7,6.6,4.3,15.4,8.5,17.4c12.8,6,29.9-3.2,22.6-11.1c-3.4-3.6-12.8-14-15.9-23.4c0,0-0.8-5.1-2-9.1c-3.8-11.9,10.7-65.2,11-75.2
		c0.4-14.1,1.8-29.6,1.8-46.1c0-10.3,4-36.3,4-36.3c2.6-12.6,6-44.4,6-44.4c5.3-28.6,5.6-52.1,2.4-79.4c-2.2-19.4-6.8-25.4-7-38.7
		c-0.1-8.8-0.7-18.9-1.5-29.2c0.6,2,1.7-22.7,1.7-22.7c-1.3,17.9,5.7,53.4,5.7,53.4l8.4,58.5l2,15.9c-9.2,16.1-2.2,37.2-2.2,37.2
		c2.8,7.9,7.6,5.4,7.6,5.4l-1.3-7.3c-1.3-5.4,0.6-13.6,0.6-13.6l6.6,13.6l-2.2,19.9c-1.6,7.9,4.1,1.9,4.1,1.9
		c7.3-12.9,8.8-23.7,8.8-23.7L977.9,458.9z M842.6,292.5c-0.1-2.4-0.2-3.8-0.2-3.8C842.5,289.7,842.6,291,842.6,292.5z M938.9,288.7
		c0,0-0.1,1.4-0.2,3.8C938.7,291,938.8,289.7,938.9,288.7z"/>
	<path class="st4" d="M662,455.6l-0.4-12V430c-0.2-20.3,2.9-47.4,0.6-63.2c-1.5-10.3-5.4-24.1-5.5-32.4c-0.3-39.2,0.1-61.9-7.1-80.3
		c-6.9-17.7-27.4-19.5-27.4-19.5c-9.7-0.9-26.7-9-26.7-9c-3.2-4.3-6.8-19.3-5.2-25.7c0.5-1.8,3.1-4.6,4.2-6.2
		c1.7-2.4,3.3-8.5,4.4-13.2c0.3,0.2,0.6,0.3,0.9,0.3c2,0,3.7-4.2,3.7-9.5c0-4.6-1.3-8.5-3-9.3l-0.9-8.2c-2-16.3-17.1-20.7-25.7-20.7
		c-8.6,0-23.8,2.7-26.2,20.7L547,162c-1.8,0.7-3.1,4.6-3.1,9.4c0,5.3,1.6,9.5,3.7,9.5c0.3,0,0.6-0.1,0.8-0.3
		c0.8,4.1,1.9,9.2,2.8,12.2c0.6,2,4,5.5,4.6,7.6c1.9,6.1-0.5,20.9-3.7,25.2c0,0-17,8.2-26.7,9c0,0-20.5,1.8-27.4,19.5
		c-7.2,18.5-6.8,41.1-7.1,80.3c-0.1,8.3-4,22.1-5.5,32.4c-2.2,15.7,0.9,42.9,0.6,63.2v13.6l-0.4,12l-5.4,37.7c0,0,1.6,10.9,8.9,23.9
		c0,0,5.7,6.1,4.1-1.9l-2.2-20.1l6.7-13.7c0,0,1.9,8.3,0.6,13.7l-1.3,7.3c0,0,4.8,2.6,7.7-5.4c0,0,7-21.4-2.2-37.7l2-16.1l12.1-58.5
		c0,0,4.1-10.6,2.8-28.8c0,0,7.9-15.4,5.8-68.9c-0.1-2.5-0.2-3.9-0.2-3.9c0.1,1,0.2,2.3,0.2,3.9c0.7,14,3,63.5,2.5,95.5
		c-0.2,13.4-1.9,19.5-4.2,39.1c-3.2,27.6-9.7,51.4-4.3,80.3c0,0,7.3,32.2,9.9,44.9c0,0-0.8,26.3-0.8,36.7c0,16.7,1.4,32.4,1.8,46.6
		c0.3,10.1,11.1,64,7.3,76c-1.3,4-2.1,9.2-2.1,9.2c-3.1,9.5-12.7,20-16.1,23.7c-7.4,8,9.9,17.3,22.9,11.2c4.3-2,6.9-10.9,8.6-17.6
		c1.1-4.2,8.4-12,9.5-16.1c2.6-9.1-1.9-18.2-2-21c-0.3-14,1.4-32,3.9-43c2.9-13.2,1-24,0-54.1c-0.4-11,2.9-18,1.9-42.5
		c-0.8-20.8,7.8-81.9,7.2-103c0,0,1,0.3,2.5,0.3c1.2,0,2.5-0.3,2.5-0.3c-0.6,21.1,8,82.2,7.2,103c-1,24.5,2.3,31.5,1.9,42.5
		c-1,30.1-2.9,40.9,0,54.1c2.4,11.1,4.2,29,3.9,43c-0.1,2.8-4.6,11.9-2,21c1.1,4,8.5,11.8,9.5,16.1c1.7,6.7,4.3,15.6,8.6,17.6
		c13,6,30.3-3.3,22.9-11.2c-3.4-3.7-13-14.2-16.1-23.7c0,0-0.8-5.1-2.1-9.2c-3.8-12.1,7-65.9,7.3-76c0.4-14.2,1.8-29.9,1.8-46.6
		c0-10.4-0.8-36.7-0.8-36.7c2.6-12.7,9.9-44.9,9.9-44.9c5.4-28.9-1.1-52.7-4.3-80.3c-2.3-19.6-4-25.7-4.2-39.1
		c-0.5-32,1.8-81.4,2.5-95.5c0-1.6,0.1-2.9,0.2-3.9c0,0-0.1,1.4-0.2,3.9c-2.1,53.4,5.8,68.9,5.8,68.9c-1.3,18.1,2.8,28.8,2.8,28.8
		l12.1,58.5l2,16.1c-9.3,16.3-2.2,37.7-2.2,37.7c2.9,8,7.7,5.4,7.7,5.4l-1.3-7.3c-1.3-5.4,0.6-13.7,0.6-13.7l6.7,13.7l-2.2,20.1
		c-1.6,8,4.1,1.9,4.1,1.9c7.3-13.1,8.9-23.9,8.9-23.9L662,455.6z"/>
</g>
<g id="IMC_Graphique_0-00-01-24__1_Image">
	<g id="Groupe_Femme" class="st5">
		<path class="st6" d="M1531.3,231.4l-2-2.4c-2.1-2.6-6.4-4.5,1-6.7c5.8-1.8,6.8-8.6,7.6-14.3c0.9-6.2-0.2-12.2-1.5-18.3
			c-2.1-9.8-3.3-19.7-0.8-29.7c4.2-17.2,15.7-26.7,33.8-27.9c4.2-0.3,8.3-0.2,12.5,0.2c26.4,2.8,33.2,25.6,31.5,45.1
			c-0.7,8.4-2.6,16.8-3.9,25.1c-1.1,6,0.5,12.1,4.3,16.9c1.1,1.4,2.4,3.1,4.3,3.3c6.6,0.5,3,3.4,1.5,5.8c-0.9,1.1-1.8,2.2-2.7,3.3
			c5.6,2.2,11.2,3.1,16.7,3.8c26.7,3.1,42.4,19.7,52.8,42.7c6.9,15.5,12.1,31.7,15.5,48.4c0.6,2.8,1.5,5.4,2.8,7.9
			c6.5,12.2,7,25.5,6.7,38.9c-0.3,11.8-1.2,23.5-4.3,35.1c-2.5,9.4-0.7,19.2-1.2,28.9c-0.7,13.8-6.3,25.3-17.3,34
			c-2,1.5-4.4,3.6-6.7,2c-2.5-1.8-1.2-4.9-0.3-7.4c1.1-3.1,2.6-6.1,3.6-9.3c0.8-2.4,1.3-4.8,1.7-7.3c0.3-2.3,0.3-5.7-2.1-6
			c-2.6-0.4-2,3.1-2.7,5c-0.8,2-0.8,4.2-1.5,6.3c-0.2,1.2-1.3,2.1-2.6,2c-1.3-0.2-1.3-1.4-1.5-2.3c-0.4-1.9-0.5-3.9-1-5.9
			c-2.1,10.6-4,21.3-6.9,31.7c-5.1,18-12.8,35.1-21.6,51.4c-9.9,18.4-14.3,36.8-10.2,57.5c3.9,19.7,0.2,39.1-4.3,58.3
			s-12.4,37.6-17.7,56.6c-0.7,3.1-1.6,6.1-2.7,9.1c-3.4,8.5-1.1,16.2,3,23.8s3.7,8.9-4.6,11.7s-16.9,4.8-25.9,4.9
			c-3.9,0-5.5-1.4-5.8-5.5c-0.9-9.5,2.4-18.5,3.7-27.6c2.2-15.5,1.6-30.9,0.1-46.3c-1.7-18.4-3.8-36.8-5.3-55.2
			c-0.9-10.6-0.5-21.3,1.4-31.9c2.5-13.1,3-26.5,1.4-39.8c-1.5-12-2.2-24.2-3.3-36.3s-1.9-24.1-2.5-36.2c-2,8.6-1.4,17.4-2.2,26.1
			c-1.7,17.4-2.7,34.9-4.6,52.2c-1.2,10.8-0.2,21.3,1.7,31.8c3.5,20.3,1.7,40.5-0.6,60.7c-1.9,16.5-4.7,33-5,49.7
			c-0.4,12.5,1,25,4,37.1c1.5,5.6,1.5,11.2,1.5,16.8c0,3.2-1.7,4.6-4.7,4.5c-10-0.3-19.9-1.6-29.3-5.3c-5.1-2-6.4-4.9-3.3-9.4
			c6.9-10.2,6.2-20.6,2.7-31.5c-7.2-22.7-14-45.4-21.2-68.1c-4.2-13.3-4.9-26.7-3.1-40.5c1.3-9.9,1.7-19.9,2.7-29.8
			c0.9-9.1-2.8-17-6.6-24.7c-10.1-20.7-19.3-41.6-26.5-63.5c-4.8-14.5-7.6-29.3-6.9-44.6c0.5-10.6-0.8-21.3,0.9-31.9
			c0.7-4.6,2.1-9.1,4.1-13.3c5.5-11.8,8.4-24.1,7.3-37.3c-0.4-5.6,1.4-10.8,3.3-16c1.3-3.5,3.2-7,2.4-11.1c-1.8,0-1.9,1.6-2.5,2.6
			c-4.4,6.7-8.2,13.7-13.2,20c-0.8,0.8-1.3,1.9-1.4,3.1c-0.8,19.9-6.5,39-10.4,58.4c-1.1,5.7-0.6,10.2,3.6,14.6
			c5,5.2,3.9,12.5,4.8,19c0.3,3,0.3,6,0,9c-0.1,1.3,0,3.4-2,3.5c-1.7,0.1-2.4-1.7-2.8-3.1c-0.8-2.5-1.3-5.1-1.9-7.7
			c-0.2-1-0.6-2.2-1.7-2.2c-1.6,0-1.4,1.5-1.6,2.6c-1,4.4,0.1,8.6,1.8,12.6c1.5,3.3,3.2,6.6,3.5,10.4c0.1,1.5,0.6,3.2-0.9,4.1
			s-3.1,0.3-4.7-0.6c-10.2-6.4-16-15.7-18.4-27.4c-0.7-2.8-1-5.6-1-8.4c0.9-17.4-2.4-34.4-5.2-51.5c-3-18.5-1.1-36.6,7.9-53.9
			c3.6-7,4.1-15.6,6.2-23.5c2.9-10.8,6.5-21.3,10.9-31.6c10.5-25.1,29.1-39,56.1-41.9C1522.4,234.6,1526.8,233.9,1531.3,231.4z
			 M1676.3,433.7l1.3,0.4c1.2-5.5,4.6-9.7,7.7-14c1.2-1.7,0.6-3.5,0.3-5.3c-1.9-9.5-3.5-19-5.7-28.3c-4.4-18.4-3.8-38.5-17.6-53.9
			c-0.8-0.8-1.1-2.1-1.7-3c-0.8-1.1-1.2-2.8-3.1-3c-1.4,4.7,0.4,8.9,2.1,12.9c3,7.1,4.2,14.8,3.3,22.4c-0.8,7.3,0.6,14.7,3.8,21.3
			c5.2,11.1,8.7,22.6,8.8,35C1675.5,423.3,1676,428.5,1676.3,433.7L1676.3,433.7z"/>
		<path class="st7" d="M1162.2,234c-3.3-3.3-6.4-5.6-8.5-9.6c4.7-0.5,8.1-2.6,10.2-6.4c2-3.5,3-7.4,3-11.4c0-8.6-2.2-16.8-3.6-25.1
			c-3-18.2,4.1-36,18-43.9c12.4-7,25.8-6.9,39.3-3.7c16.2,3.9,25,14.7,27.6,31c1.6,9.7,0.1,19.2-1.7,28.7c-0.8,4.4-1.8,8.8-1.6,13.3
			c0.3,9.7,3.9,14.7,13.1,17.7c-1.7,3.8-5.3,5.9-8.1,9.3c8.2,2.1,15.6,5,23.5,6.2c17.7,2.6,29.9,13,38.6,27.9
			c6.8,11.7,9.6,24.8,11.5,38c2.9,19.4,5.7,38.6,12,57.5c5.1,15.3,3.4,31.7,1,47.5c-1.1,7-0.1,14-1.3,20.9
			c-2,12.2-5.8,23.9-9.7,35.5c-1.6,4.6-4.7,8.4-8.3,11.8c-1.8,1.7-3.8,4.2-6.4,2.5c-2.3-1.5-1-4.3-0.1-6.4
			c2.8-6.8,3.9-14.2,3.4-21.5c-0.1-0.8-0.2-1.5-0.3-2.8c-3.6,3.2-3.7,7.1-4.6,10.7c-0.5,1.9-0.8,4.1-3,3.8s-1.2-2.8-1.2-4.3
			c-0.5-10.8,1-21.2,6.5-30.8c1.8-3,1.6-6.2,1-9.7c-2.7-15.8-7.8-30.9-11.6-46.4c-1.6-6.4-3.2-12.9-3.1-19.6c0-2-0.5-4-1.4-5.8
			c-6.2-11.2-11.8-22.7-16.9-34.5c-0.3-0.4-0.6-0.8-1-1.1c-4.4,3.9-4.1,8.9-3.2,13.9c0.9,4.8,2.4,9.4,4.4,13.7
			c4.7,9.4,7.6,19.6,8.5,30.1c0.5,4.6,1.8,9.2,3.6,13.4c7.2,17.7,6.9,36,4.8,54.6c-2.8,24.6-10.4,47.7-21.6,69.6
			c-9.1,17.9-10,37-8.2,56.4c2.8,29.3,0.9,58.1-7.2,86.5c-6.3,22-12,44.3-18.2,66.3c-1.7,6.2,0.5,11.5,3,16.7
			c5.6,11.8,4.9,13.1-7.7,16.8c-6.9,1.9-14.1,2.8-21.2,2.6c-3.3-0.1-4.4-1.4-4.7-4.9c-0.7-10.8,3-21,4.5-31.5
			c2.2-16.1,1.1-31.8-0.9-47.7c-2.5-20.5-5.5-40.9-6.1-61.5c-0.4-8,0.3-16,2-23.8c3.2-13.8,3.1-27.7,1.4-41.7
			c-2.2-18.3-4.3-36.7-5-55.1c0-0.9-0.5-1.7-1.3-2.1c-0.3,4.3-0.5,8.7-1,13c-1.8,17.5-3.6,35.1-5.4,52.6
			c-1.4,13.6,1.6,26.8,3.2,40.2c1.8,15,0.9,29.9-0.7,44.8c-1.9,18-4.8,36-6.2,54c-1.2,15.8,0.9,31.6,4.8,47
			c1.2,4.7,0.6,9.3,0.7,13.9c0.1,2.2-2,2.5-3.6,2.7c-10.2,0.8-20.4-0.9-29.7-5.2c-3.9-1.8-4.8-4.8-2.9-8.7c0.7-1.3,1.3-2.7,2.1-4
			c4.3-6.9,4.9-13.9,2.5-21.9c-8.3-28.7-17-57.4-22.8-86.8c-3.5-17.8-3.5-35.8-1.9-53.7c1.4-16.2,1.3-32.2-1.6-48.2
			c-1.6-8.8-6.3-16.4-10.1-24.4c-13.7-28.3-20.2-59.5-19-90.9c0.4-7.2,1.8-14.3,4.3-21c3.2-9.1,5.5-18.5,6.7-28.1
			c0.9-6.1,2.8-12,5.8-17.5c3.1-5.7,5.1-12,5.9-18.4c0.5-4.3,0.6-8.4-3.3-11.5c-1.4,0.3-1.4,1.8-1.8,2.9c-4.3,10.3-9.2,20.3-14.8,30
			c-3,5-2.2,10.7-3.2,16c-3.5,17.8-9.6,34.9-13.2,52.7c-1.6,7.6-1.1,14.2,2.7,21c4.7,8.5,3.5,18.1,4,27.4c0,0.8,0,1.9-1.1,1.9
			c-0.8-0.1-1.6-0.6-2-1.3c-0.8-1.6-1.4-3.4-1.8-5.1c-0.7-2.7-1.2-5.4-3.7-8.2c-1,6.6-0.9,12.4,0.8,18.2c0.5,1.6,1.2,3.1,1.7,4.7
			c0.7,2.6,3,6.1,0.3,7.8c-3.2,2-5.7-1.6-7.8-3.7c-4-4.1-6.9-9.1-8.4-14.6c-3.1-10.7-7.8-21.1-8.1-32.3c-0.4-15.3-3.8-30.3-3.1-45.7
			c0.5-11.2,2.2-22.1,6.1-32.7c5.1-13.6,6.1-28.2,8.2-42.5c2.4-16.7,5-33.3,15.3-47.4c9.3-12.8,21.2-21.1,37.5-22.9
			C1147.8,239,1154.5,236.1,1162.2,234z"/>
		<path class="st8" d="M838.7,233.5c-1.1-1.2-2.2-2.4-3.3-3.6c-3.8-4.2-3.6-4.3,1-7c4.9-2.9,6-8.1,6.7-13.3
			c1.1-8.8-1.4-17.2-2.5-25.8c-1.4-9.3-0.8-18.7,1.8-27.7c5.5-17.8,20.1-26.1,40.2-23.9c22.1,2.4,29.4,16.6,31.4,37.2
			c0.8,8.7-1.2,17.2-2.4,25.8c-1.1,7.9-2,15.9,2.1,23.4c1.3,2.4,2.8,5.1,5.7,5c3.7-0.1,2.8,1.4,1.5,3.1c-1.7,2.4-3.7,4.6-5.9,7.3
			c6.3,1.8,12.3,3.6,18.4,5.1c10.1,2.4,17,8.8,22.2,17.3c7.6,12.2,12.1,26.1,13.2,40.4c1.1,13.3,1.6,26.6,2,39.9
			c0.2,5.6,1.5,11.2,4,16.2c8.5,18,7.6,37.2,6.7,56.4c-0.1,2.8-0.7,5.7-0.4,8.5c1.4,17-3.1,33-7.1,49.1c-1.6,6.2-4.6,11.8-8.9,16.5
			c-1.5,1.7-3.3,4-5.9,2.5c-2.3-1.4-1.1-3.9-0.5-5.9c2.2-6.4,3.7-12.8,3.2-19.6c-0.1-1.4,0.5-3-1.2-4.3c-2.5,2.8-2.5,6.3-3.2,9.6
			c-0.4,1.7-0.6,4.3-2.9,4c-2-0.3-1.2-2.8-1.3-4.3c-0.7-11.2,1.4-22.3,6.1-32.5c1.2-2.4,0.8-4.4,0.4-6.7c-2.8-17.3-9.1-33.7-12-50.9
			c-3-18.1-8.5-35.5-12.8-53.2c-0.3-1.1-0.2-2.3-1.3-3.1c-2,7.8-1,22.8,2.9,33.5c5.8,16.4,10.4,32.9,12.6,50.2
			c4.1,31.8,0.4,62.7-9.7,93c-3.4,10.2-7.9,20.2-9.6,30.9c-2.5,16.8-3,33.8-1.4,50.7c2.3,25.9-0.4,51.5-7,76.7
			c-5.7,21.5-10.8,43.2-16.5,64.8c-2,7.4,0.2,13.7,3.3,20.1c4.5,9.1,2.4,13-7.9,14.1c-4.1,0.5-8.3,1-12.4,1.1
			c-6.9,0.1-9.7-3.2-7.4-9.9c3.4-9.9,3.9-20.2,5.5-30.3c2.2-13.7,0.7-27.2-0.7-40.8c-2.4-24.8-6.9-49.5-5.4-74.6
			c0.6-8.3,1.6-16.6,3-24.8c1.9-12,0-23.9-1.1-35.8c-2.2-21.7-3.9-43.5-5.2-65.3c-0.5,9-1,18-1.7,26.9c-1.4,16.8-2.6,33.5-4.5,50.2
			c-1.3,11.4,0.2,22.6,1.8,33.8c2.5,17.5,1.8,34.9,0.2,52.3c-1.8,19.2-5.1,38.3-5.6,57.6c-0.4,17,1,33.9,6.1,50.3
			c2.3,7.5,0,10.2-7.8,10.3c-5.2,0.1-10.4-0.5-15.4-1.7c-7.2-1.9-8.7-5.1-5.5-11.7c0.8-1.7,1.7-3.2,2.5-4.9c2.9-6.1,3-12.2,1.3-18.9
			c-7.9-30.4-16.6-60.7-21.6-91.7c-3.3-20.5-1.9-41.2-0.5-61.8c1.3-16.6-0.6-33.4-5.6-49.3c-5.5-17-11.8-33.9-14.7-51.7
			c-5.2-30.8-3.2-62.4,5.8-92.3c3.3-11,7.8-21.6,9-33.1c0.7-6.3,0.5-12.6-0.6-18.8c-2.2,8.2-4.7,16.5-6.7,24.8
			c-6.5,27.1-12.8,54.3-19.2,81.4c-1.3,5.4,0.2,10.3,2.5,14.9c4.6,9.1,3,18.9,3.9,28.4c0.1,0.9-0.2,2.2-1.5,2.1s-1.9-1.2-2.2-2.3
			c-1.2-3.7-0.8-8-4.1-11.9c-1.2,5.5-1.1,11.2,0.3,16.7c0.8,3,1.7,6.1,2.6,9.1c0.5,1.6,0.9,3.5-0.8,4.5s-3.4,0-4.8-1.3
			c-7-6.6-9.4-15.4-11.8-24.3c-6.7-24.3-5.8-49.1-6-73.9c-0.2-12.9,2.8-25.6,8.7-37c4-7.6,2.7-16.4,2.9-24.6
			c0.5-17.2,0.7-34.3,6.4-50.8c4.5-12.9,10.2-25.2,22.9-32.1c6.3-3.4,13.5-4.5,20.4-6.3C835.2,235.1,837.1,235,838.7,233.5z"/>
		<path class="st9" d="M515.2,235.4c-3.9-3.2-7-6.4-9.3-10.7c9.2-2,10.5-9.4,11.3-16.7c0.9-8.2-1.5-16.2-2.6-24.2
			c-1.7-12.6-0.7-25,5.6-36.4c4-7.7,11.4-13.1,20-14.3c11-1.8,22-2,31.9,4.1c11.8,7.2,14.7,19.1,15.9,31.7c0.9,9.5-1,18.9-2.5,28.2
			c-0.9,5.9-1.4,11.9,0.5,17.8c1.6,4.8,4,8.9,9.9,9.4c-1.7,4.7-5.2,7.5-8.9,10.9c6.2,2.2,12.5,2.7,18.5,3.7
			c6.6,1.1,10.9,4.7,13.6,10.4c5,10.5,7.1,21.8,7.7,33.3c0.7,13.3,0,26.6,0.8,39.9c0.9,14.1,1.9,28.1,5.5,41.9
			c2,7.7,2.5,15.8,2.6,23.8c0.3,21.8,0.8,43.6-1.9,65.4c-1.4,11.1-7.2,20.2-15.5,27.7c-1.5,1.4-3.5,3.5-5.6,1.8s-0.4-4,0.5-5.9
			c2.3-4.8,4.9-9.4,6-14.7c0.7-2.7,0.9-5.4,0.6-8.1c-2.7,0.6-3,3-3.9,4.8s-1.5,3.7-2.4,5.5c-0.5,1.1-1.5,2-2.8,1.2
			c-1.1-0.6-0.7-1.7-0.4-2.7c2.3-9.5,3.5-19.1,9.5-27.6c3.5-4.9,0.4-11.1-0.5-16.5c-2.6-15.1-6.2-30-8.6-45
			c-3.1-19.9-5.3-39.9-7.9-59.8c-0.8-6.9-2-13.7-3.6-20.4c-13,28.4-14,57-1.5,85.9c7.8,18,9.4,36.8,8.5,56.2
			c-1.2,27.6-8,54.2-14.2,80.9c-5.1,22.1-5.6,44.5-3,67c1.8,16.5,0.4,32.9-1.7,49.2c-3.1,24-8.7,47.8-9.7,72.1
			c-0.6,12.6,0.4,25.3,2.8,37.7c1.2,5.7-0.7,8.6-6.3,9.8c-4.1,1-8.2,1.5-12.4,1.4c-6.3-0.2-9.1-3.3-7.2-9.3
			c5.8-18.9,7.2-38.2,6.1-57.8c-0.8-13.8-2.5-27.5-4.2-41.2c-3.1-24.7-4.2-49.4,0.7-74c1.9-9.5-1.3-18.5-1.7-27.8
			c-0.1-2.7-0.7-5.3-0.5-8c1-15.8,0.1-31.6-0.3-47.4c-0.3-13.1-1.3-26.3-2-39.4c-0.1-1.3-0.4-2.6-0.7-3.9c-0.2-0.9,0-2.2-1.4-2.1
			c-1.2,0.1-1.4,1.2-1.5,2.2c-0.4,5.1-0.8,10.3-1.1,15.4c-1.4,24.3-2.7,48.5-2,72.9c0.2,7.7-0.4,15.3-1.8,22.8
			c-1.6,9.2,0.5,18.2,1.9,27.3c2.5,16.8,1.7,33.5,0.2,50.3c-2,21.9-5.7,43.6-5.8,65.6c-0.1,13.9,1.3,27.9,5.5,41.4
			c0.6,1.7,1,3.5,1.4,5.3c0.7,4.4-1.4,7.2-5.8,7.6c-5,0.5-10,0-14.8-1.4c-5.4-1.5-7.1-4.8-5.6-11.4c3.2-13.8,3.5-27.8,2.5-41.7
			c-1.3-17.6-4.1-35-7.2-52.3c-4.6-25.7-5.5-52-2.9-78c2.2-22.1-1.8-43.8-7.2-65.1c-6.5-25.9-11.9-51.9-11.3-78.8
			c0.4-18.6,2.9-36.8,12.1-53.5c3.3-6,4.3-12.9,4.6-19.8c0.6-13.6,0-27.3-1.7-40.9c-0.2-2.3-1-4.6-2.3-6.5c-2.3-3.4-4.4-7-6-10.8
			c-1,6-2,12-2.9,18.1c-4.2,28.1-6.1,56.5-12.1,84.3c-2.1,9.6-4.2,19.1-5.6,28.9c-0.8,5.4-0.6,10.4,2.2,15.4
			c3.6,6.4,6.3,13.3,7.9,20.5c0.4,1.5,1.1,3.1-0.2,5c-4.8-2.9-5.6-8.9-10-12.5c0.1,7.5,2.7,13.7,5.1,20.1c0.6,1.4,1.1,2.8,1.6,4.2
			c0.5,2,2.3,4.5-0.1,5.8c-2.1,1.1-4-1.2-5.4-2.7c-8.7-10-14.9-20.8-15.6-34.7c-0.8-17.3-0.9-34.6-0.8-51.9
			c-0.1-14,1.7-27.9,5.2-41.5c2-7.6,1.8-15.5,2.5-23.3c1.1-13.3,1.5-26.6,1.1-39.9c-0.3-11.4,1.7-22.5,5-33.4s9.8-17.8,22-18.2
			C506.1,237.8,510.3,236.4,515.2,235.4z"/>
		<path class="st10" d="M188.2,289.9c-4.9,17.8-8.1,36-9.8,54.4c-2,22.1-6.2,43.7-10.6,65.3c-1.1,5.2-1.7,10.5-2.6,15.7
			c-0.8,4.1,0.5,8.4,3.4,11.5c6.4,7.3,6.2,16.9,8.5,25.7c0.2,0.9,0.1,2.1-1.2,2.3c-1.2,0.1-1.8-0.9-2.2-1.7
			c-1.9-3.7-2.7-8.1-6.3-11.7c-0.9,8.8,3.1,15.7,5.9,22.8c0.9,2.4,4.4,5.2,1.3,7.4c-2.9,2-5-1.6-6.9-3.5
			c-8.1-7.9-13.3-17.5-14.3-28.8c-2-23.9-1.5-47.9-1-71.9c0.2-8.8,1.8-17.6,5-25.8c3.8-9.7,3.8-19.9,4.6-29.9
			c0.9-13.3,1.6-26.6,1.2-39.9c-0.2-11.3,2-22.6,6.4-33.1c3.7-9.1,8-12.9,16.8-11.6c0.8,0.1,1.7,0.1,2.5,0c2.8-0.3,6.6,0.1,7.7-2.1
			c1-2-2.9-3.5-4.4-5.4c-2.2-2.8-4.7-4.5,1-6.7c5.2-2.1,6.4-7.8,7-13c0.5-6.3,0-12.7-1.5-18.9c-2.2-9.8-2.5-19.9-0.6-29.7
			c4.6-22.8,21-31.2,42.4-28.9c19.1,2.1,25.8,13.2,29.8,31.1c2.2,10.2,0.1,20.2-1.4,30.2c-1,6.1-2,12.2-0.5,18.3
			c1.3,5.1,2.6,10.1,8.4,12c2.5,0.8,1.4,2.1,0.7,3.4c-1.6,2.9-4.2,5-7.1,7.3c3.6,2.6,7.5,2.8,11.2,2.3c8.8-1.3,13.5,3.6,16.5,10.6
			c3.6,8.1,5.7,16.7,6.2,25.5c0.6,11.6,0.5,23.3,1.1,34.9c0.5,11,0.8,22,2.3,32.8c1.1,8.1,4.9,15.8,6.2,24.1
			c2.8,18.5,2.9,37.1,2,55.7c-0.5,10.1-0.3,20.3-1.5,30.3c-1.4,12.1-7.6,21.8-16.6,29.7c-1.2,1.1-3.1,2-4.6,0.8s-0.8-3.1-0.1-4.6
			c2.3-5.5,5.7-10.5,6.8-16.6c0.5-2.8,0.7-5.6,0.4-8.4c-3.3,3.1-3.8,6.9-5.5,10c-0.7,1.3-1.3,3.2-3,2.7c-2.3-0.6-0.8-2.5-0.5-3.8
			c1.7-9.9,3.6-19.7,10.6-27.5c1.6-1.8,1.6-3.8,1.3-6.1c-2.7-20.3-8.1-40-11-60.2c-1.9-13.1-2.8-26.4-4.7-39.6
			c-1.8-12.6-4.3-25.1-6.9-37.7c-5.3,10.4-6.9,21.6-8.9,32.8c-1.2,6.9-2,13.8-3,20.7c-1.5,10.9,2.2,20.6,6.6,30.2
			c9.3,20.4,12.5,42,11.1,64.2c-1.2,20.5-5.9,40.4-10.5,60.3c-2.9,12.5-6.2,24.8-5.4,37.8c0.4,6.5-0.9,12.9-2,19.3
			c-1.9,11.7,0.2,23.2,0.9,34.8c1,15.4-0.8,30.5-3.2,45.7c-2.8,17.9-5.4,35.8-6.8,53.9c-1.1,14.1-2.1,28.2,1.1,42.2
			c0.9,4,2.3,8,3.5,12s-0.3,6.6-3.9,8c-5.6,2.1-11.7,2.9-17.7,2.1c-3.8-0.4-6.1-4.5-4.6-9c6.5-19.8,7.6-40.2,6.6-60.6
			c-1-20.1-3.3-40.1-4.4-60.1c-1-14.3-0.9-28.6,0.2-42.9c0.9-9.7,1.9-19.4-0.4-29.2c-3.1-13.3-0.6-26.9,0.1-40.3
			c0.8-13.5,0.6-26.9-0.8-40.4c-0.8-7.4-1.8-14.8-2.7-22.2c-0.2-1.3-0.4-2.6-0.7-3.9c-0.2-1-0.3-2.1-1.7-2.1s-1.5,1.1-1.5,2.1
			c-0.3,8.5-2,16.8-3,25.2c-1.9,15.1-1,30.3-0.9,45.4c0,3.3,0.7,6.6,0.8,9.9c0.2,10.5,0.2,20.8-1.6,31.3c-2,11.3,0.5,22.9,1.1,34.3
			c0.8,13.4-0.6,26.6-0.8,39.9c-0.2,9.9-1.8,19.8-2.5,29.8s-2.1,19.6-1.9,29.3c0.3,17.4,0.6,34.8,6.2,51.7c3,9.1,0.5,12-9.1,11.8
			c-3,0-6-0.3-8.9-1c-7.2-1.8-9.2-4.8-6.6-12c4.6-12.6,5.6-25.7,5-38.8c-1-20.4-3.9-40.7-7.2-60.8c-3.6-22-5.7-44.1-2.8-66.5
			c1.6-12.2-1.2-24.2-2.1-36.3c-0.6-7.7,0.6-15.5-1.2-23.2c-4.2-18.1-8.3-36.3-11.9-54.5c-6.6-33.2-4.1-65.5,11.5-96.1
			c4.5-8.8,3.5-18.3,2.5-27.5c-1.2-11.5-3.6-22.9-5.9-34.3C191.9,298.5,189.8,294.2,188.2,289.9z"/>
	</g>
	<polygon points="1684.2,779.7 1676.2,779.7 1676.2,786.5 1364.8,786.5 1364.8,779.7 1356.8,779.7 1356.8,786.5 1050.2,786.5 
		1050.2,779.7 1042.2,779.7 1042.2,786.5 737,786.5 737,779.7 729,779.7 729,786.5 426.2,786.5 426.2,779.7 418.2,779.7 
		418.2,786.5 126.5,786.5 126.5,779.7 118.5,779.7 118.5,786.5 118.5,786.5 118.5,794.5 1684.2,794.5 1684.2,794.3 1684.2,794.3 	
		"/>
	<rect x="118.5" y="794.5" class="st2" width="303.7" height="125.4"/>
	<rect x="422.2" y="794.5" class="st4" width="311.1" height="125.4"/>
	<rect x="733.3" y="794.5" class="st3" width="313.5" height="125.4"/>
	<rect x="1046.9" y="794.5" class="st0" width="313.5" height="125.4"/>
	<rect x="1360.4" y="794.5" class="st1" width="323.8" height="125.4"/>
	<g>
		<path class="st11" d="M156,821.5h2.7v25.9H156V821.5z"/>
		<path class="st11" d="M182.3,829.9c1.4,1.4,2.2,3.5,2.2,6.2v11.3h-2.6v-11c0-2-0.5-3.6-1.5-4.6c-1-1.1-2.5-1.6-4.3-1.6
			c-2.1,0-3.8,0.6-5,1.9c-1.2,1.2-1.8,3-1.8,5.2v10.2h-2.6V828h2.5v3.6c0.7-1.2,1.7-2.1,3-2.8s2.7-1,4.4-1
			C179,827.8,180.9,828.5,182.3,829.9z"/>
		<path class="st11" d="M192.3,846.9c-1.4-0.5-2.6-1-3.4-1.7l1.2-2.1c0.8,0.6,1.8,1.2,3.1,1.6s2.5,0.6,3.8,0.6
			c1.8,0,3.1-0.3,3.9-0.8s1.3-1.3,1.3-2.3c0-0.7-0.2-1.3-0.7-1.7s-1.1-0.7-1.8-0.9s-1.7-0.4-2.8-0.6c-1.6-0.3-2.8-0.6-3.8-0.9
			s-1.8-0.8-2.5-1.6c-0.7-0.7-1-1.8-1-3.1c0-1.6,0.7-3,2-4c1.4-1,3.2-1.6,5.7-1.6c1.3,0,2.5,0.2,3.8,0.5s2.3,0.8,3.1,1.3l-1.1,2.1
			c-1.6-1.1-3.5-1.7-5.7-1.7c-1.7,0-2.9,0.3-3.8,0.9s-1.3,1.4-1.3,2.3c0,0.7,0.2,1.3,0.7,1.8c0.5,0.4,1.1,0.8,1.8,1s1.7,0.4,3,0.6
			c1.6,0.3,2.8,0.6,3.7,0.9s1.7,0.8,2.4,1.5s1,1.7,1,3c0,1.7-0.7,3.1-2.1,4.1c-1.4,1-3.4,1.5-5.9,1.5
			C195.3,847.6,193.8,847.3,192.3,846.9z"/>
		<path class="st11" d="M227.3,827.9v19.5h-2.5v-3.6c-0.7,1.2-1.6,2.1-2.8,2.8s-2.6,1-4.1,1c-2.5,0-4.5-0.7-6-2.1
			c-1.5-1.4-2.2-3.5-2.2-6.2V828h2.6v11c0,2,0.5,3.6,1.5,4.7c1,1.1,2.5,1.6,4.3,1.6c2,0,3.7-0.6,4.8-1.9c1.2-1.2,1.8-3,1.8-5.2V828
			L227.3,827.9L227.3,827.9z"/>
		<path class="st11" d="M238.5,822.9c-0.6,0.6-0.9,1.5-0.9,2.7v2.3h6v2.2h-5.9v17.2h-2.6v-17.2h-3.5v-2.2h3.5v-2.4
			c0-1.8,0.5-3.2,1.5-4.2s2.5-1.6,4.3-1.6c0.7,0,1.5,0.1,2.1,0.3c0.7,0.2,1.3,0.5,1.7,0.9l-0.9,2c-0.8-0.6-1.7-1-2.9-1
			C239.9,822,239.1,822.3,238.5,822.9z"/>
		<path class="st11" d="M251,822.9c-0.6,0.6-0.9,1.5-0.9,2.7v2.3h6v2.2h-5.9v17.2h-2.6v-17.2h-3.5v-2.2h3.5v-2.4
			c0-1.8,0.5-3.2,1.5-4.2s2.5-1.6,4.3-1.6c0.7,0,1.5,0.1,2.1,0.3c0.7,0.2,1.3,0.5,1.7,0.9l-0.9,2c-0.8-0.6-1.7-1-2.9-1
			C252.5,822,251.6,822.3,251,822.9z M262.6,823.1c-0.4-0.4-0.6-0.8-0.6-1.3s0.2-0.9,0.6-1.3c0.4-0.4,0.8-0.6,1.4-0.6
			c0.5,0,1,0.2,1.4,0.5c0.4,0.4,0.6,0.8,0.6,1.3s-0.2,1-0.6,1.4s-0.8,0.6-1.4,0.6C263.5,823.7,263,823.5,262.6,823.1z M262.7,827.9
			h2.6v19.5h-2.6V827.9z"/>
		<path class="st11" d="M273.3,846.9c-1.4-0.5-2.6-1-3.4-1.7l1.2-2.1c0.8,0.6,1.8,1.2,3.1,1.6s2.5,0.6,3.8,0.6
			c1.8,0,3.1-0.3,3.9-0.8s1.3-1.3,1.3-2.3c0-0.7-0.2-1.3-0.7-1.7s-1.1-0.7-1.8-0.9c-0.7-0.2-1.7-0.4-2.8-0.6
			c-1.6-0.3-2.8-0.6-3.8-0.9s-1.8-0.8-2.5-1.6c-0.7-0.7-1-1.8-1-3.1c0-1.6,0.7-3,2-4c1.4-1,3.2-1.6,5.7-1.6c1.3,0,2.5,0.2,3.8,0.5
			s2.3,0.8,3.1,1.3l-1.1,2.1c-1.6-1.1-3.5-1.7-5.7-1.7c-1.7,0-2.9,0.3-3.8,0.9s-1.3,1.4-1.3,2.3c0,0.7,0.2,1.3,0.7,1.8
			c0.5,0.4,1.1,0.8,1.8,1c0.7,0.2,1.7,0.4,3,0.6c1.6,0.3,2.8,0.6,3.7,0.9s1.7,0.8,2.4,1.5c0.7,0.7,1,1.7,1,3c0,1.7-0.7,3.1-2.1,4.1
			s-3.4,1.5-5.9,1.5C276.3,847.6,274.8,847.3,273.3,846.9z"/>
		<path class="st11" d="M303.4,829.7c1.4,1.3,2,3.2,2,5.6v12.1h-2.5v-3c-0.6,1-1.5,1.8-2.6,2.4s-2.5,0.9-4.1,0.9
			c-2.2,0-3.9-0.5-5.2-1.6c-1.3-1-1.9-2.4-1.9-4.1c0-1.7,0.6-3,1.8-4c1.2-1,3.1-1.5,5.7-1.5h6.2v-1.2c0-1.7-0.5-3-1.4-3.8
			c-0.9-0.9-2.3-1.3-4.1-1.3c-1.2,0-2.4,0.2-3.6,0.6c-1.1,0.4-2.1,1-2.9,1.7l-1.2-2c1-0.8,2.2-1.5,3.6-1.9c1.4-0.5,2.8-0.7,4.4-0.7
			C300.1,827.8,302,828.4,303.4,829.7z M300.4,844.5c1.1-0.7,1.9-1.7,2.4-2.9v-3.2h-6.1c-3.3,0-5,1.2-5,3.5c0,1.1,0.4,2,1.3,2.7
			s2.1,1,3.6,1C298.1,845.5,299.4,845.2,300.4,844.5z"/>
		<path class="st11" d="M328.3,829.9c1.4,1.4,2.2,3.5,2.2,6.2v11.3h-2.6v-11c0-2-0.5-3.6-1.5-4.6c-1-1.1-2.5-1.6-4.3-1.6
			c-2.1,0-3.8,0.6-5,1.9c-1.2,1.2-1.8,3-1.8,5.2v10.2h-2.6V828h2.5v3.6c0.7-1.2,1.7-2.1,3-2.8s2.7-1,4.4-1
			C324.9,827.8,326.9,828.5,328.3,829.9z"/>
		<path class="st11" d="M340.6,846.3c-1.5-0.8-2.7-2-3.6-3.5s-1.3-3.2-1.3-5.1c0-1.9,0.4-3.6,1.3-5.1s2.1-2.7,3.6-3.5
			s3.2-1.3,5.2-1.3c1.7,0,3.2,0.3,4.5,1s2.4,1.6,3.1,2.9l-2,1.3c-0.6-1-1.5-1.7-2.4-2.2c-1-0.5-2.1-0.7-3.2-0.7
			c-1.4,0-2.7,0.3-3.8,0.9c-1.1,0.6-2,1.5-2.6,2.7s-0.9,2.5-0.9,4s0.3,2.8,0.9,4c0.6,1.1,1.5,2,2.6,2.7c1.1,0.6,2.4,0.9,3.8,0.9
			c1.2,0,2.2-0.2,3.2-0.7s1.8-1.2,2.4-2.1l2,1.3c-0.8,1.3-1.8,2.2-3.1,2.9c-1.3,0.7-2.8,1-4.5,1
			C343.8,847.6,342.1,847.2,340.6,846.3z"/>
		<path class="st11" d="M375.1,838.5h-16.3c0.1,2,0.9,3.7,2.3,4.9s3.2,1.9,5.3,1.9c1.2,0,2.3-0.2,3.3-0.6c1-0.4,1.9-1.1,2.6-1.9
			l1.5,1.7c-0.9,1-1.9,1.8-3.2,2.4c-1.3,0.5-2.7,0.8-4.3,0.8c-2,0-3.8-0.4-5.3-1.3c-1.5-0.9-2.7-2-3.6-3.5s-1.3-3.2-1.3-5.1
			c0-1.9,0.4-3.6,1.2-5.1c0.8-1.5,2-2.7,3.4-3.5s3.1-1.3,4.9-1.3s3.4,0.4,4.8,1.3c1.4,0.8,2.6,2,3.4,3.5s1.2,3.2,1.2,5.1
			L375.1,838.5z M361,831.8c-1.3,1.2-2,2.8-2.2,4.7h13.8c-0.2-1.9-0.9-3.5-2.2-4.7c-1.3-1.2-2.9-1.8-4.8-1.8
			C363.9,830,362.3,830.6,361,831.8z"/>
		<path class="st11" d="M188.2,873.4c1.5,0.8,2.6,2,3.5,3.5c0.8,1.5,1.3,3.2,1.3,5.1c0,1.9-0.4,3.7-1.3,5.2c-0.8,1.5-2,2.7-3.5,3.5
			s-3.1,1.2-5,1.2c-1.6,0-3-0.3-4.3-1s-2.3-1.6-3.1-2.9v11h-2.6v-26.6h2.5v3.8c0.8-1.3,1.8-2.3,3.1-3s2.8-1,4.4-1
			C185.1,872.2,186.7,872.6,188.2,873.4z M186.8,888.7c1.1-0.6,2-1.5,2.6-2.7s0.9-2.5,0.9-4s-0.3-2.8-0.9-3.9
			c-0.6-1.1-1.5-2-2.6-2.7s-2.3-1-3.7-1s-2.6,0.3-3.7,1c-1.1,0.6-2,1.5-2.6,2.7c-0.6,1.1-0.9,2.5-0.9,3.9c0,1.5,0.3,2.8,0.9,4
			c0.6,1.2,1.5,2.1,2.6,2.7c1.1,0.6,2.3,0.9,3.7,0.9C184.4,889.6,185.7,889.3,186.8,888.7z"/>
		<path class="st11" d="M201.2,890.7c-1.5-0.9-2.7-2-3.6-3.5c-0.9-1.5-1.3-3.2-1.3-5.1c0-1.9,0.4-3.6,1.3-5.1c0.9-1.5,2-2.7,3.6-3.5
			c1.5-0.8,3.2-1.3,5.1-1.3c1.9,0,3.6,0.4,5.1,1.3c1.5,0.8,2.7,2,3.5,3.5c0.9,1.5,1.3,3.2,1.3,5.1c0,1.9-0.4,3.6-1.3,5.1
			c-0.9,1.5-2,2.7-3.5,3.5c-1.5,0.9-3.2,1.3-5.1,1.3S202.7,891.6,201.2,890.7z M210,888.7c1.1-0.6,2-1.5,2.6-2.7s0.9-2.5,0.9-4
			s-0.3-2.8-0.9-4c-0.6-1.2-1.5-2.1-2.6-2.7c-1.1-0.6-2.3-0.9-3.7-0.9s-2.6,0.3-3.7,0.9c-1.1,0.6-2,1.5-2.6,2.7s-0.9,2.5-0.9,4
			s0.3,2.8,0.9,4c0.6,1.2,1.5,2.1,2.6,2.7c1.1,0.6,2.3,0.9,3.7,0.9C207.7,889.6,208.9,889.3,210,888.7z"/>
		<path class="st11" d="M237.3,874.3c1.4,1.4,2.2,3.5,2.2,6.2v11.3h-2.6v-11c0-2-0.5-3.6-1.5-4.6c-1-1.1-2.5-1.6-4.3-1.6
			c-2.1,0-3.8,0.6-5,1.9c-1.2,1.2-1.8,3-1.8,5.2v10.2h-2.6v-19.5h2.5v3.6c0.7-1.2,1.7-2.1,3-2.8s2.7-1,4.4-1
			C233.9,872.2,235.8,872.9,237.3,874.3z"/>
		<path class="st11" d="M264.4,864.3v27.5h-2.5V888c-0.8,1.3-1.8,2.3-3.1,3c-1.3,0.7-2.8,1-4.4,1c-1.8,0-3.5-0.4-5-1.3
			c-1.5-0.8-2.6-2-3.5-3.5c-0.8-1.5-1.3-3.2-1.3-5.1c0-1.9,0.4-3.6,1.3-5.1c0.8-1.5,2-2.7,3.5-3.5s3.1-1.2,5-1.2c1.6,0,3,0.3,4.3,1
			s2.3,1.6,3.1,2.9v-11.7h2.6V864.3z M258.3,888.7c1.1-0.6,2-1.5,2.6-2.7s0.9-2.5,0.9-4s-0.3-2.8-0.9-4s-1.5-2.1-2.6-2.7
			c-1.1-0.6-2.3-0.9-3.7-0.9s-2.6,0.3-3.7,0.9c-1.1,0.6-2,1.5-2.6,2.7s-0.9,2.5-0.9,4s0.3,2.8,0.9,4c0.6,1.2,1.5,2.1,2.6,2.7
			c1.1,0.6,2.3,0.9,3.7,0.9C256,889.6,257.2,889.3,258.3,888.7z"/>
		<path class="st11" d="M288.7,882.9h-16.3c0.1,2,0.9,3.7,2.3,4.9s3.2,1.9,5.3,1.9c1.2,0,2.3-0.2,3.3-0.6c1-0.4,1.9-1.1,2.6-1.9
			l1.5,1.7c-0.9,1-1.9,1.8-3.2,2.4c-1.3,0.5-2.7,0.8-4.3,0.8c-2,0-3.8-0.4-5.3-1.3c-1.5-0.9-2.7-2-3.6-3.5s-1.3-3.2-1.3-5.1
			c0-1.9,0.4-3.6,1.2-5.1c0.8-1.5,2-2.7,3.4-3.5s3.1-1.3,4.9-1.3s3.4,0.4,4.8,1.3c1.4,0.8,2.6,2,3.4,3.5s1.2,3.2,1.2,5.1
			L288.7,882.9z M274.6,876.2c-1.3,1.2-2,2.8-2.2,4.7h13.8c-0.2-1.9-0.9-3.5-2.2-4.7c-1.3-1.2-2.9-1.8-4.8-1.8
			C277.4,874.4,275.8,875,274.6,876.2z M281.9,864.7h3.5l-6,4.6h-2.6L281.9,864.7z"/>
		<path class="st11" d="M299.4,873.2c1.2-0.7,2.7-1,4.5-1v2.6h-0.6c-2,0-3.7,0.6-4.8,1.9c-1.2,1.3-1.7,3-1.7,5.3v9.9h-2.6v-19.5h2.5
			v3.8C297.2,874.8,298.1,873.8,299.4,873.2z"/>
		<path class="st11" d="M321.2,874.1c1.4,1.3,2,3.2,2,5.6v12.1h-2.5v-3c-0.6,1-1.5,1.8-2.6,2.4s-2.5,0.9-4.1,0.9
			c-2.2,0-3.9-0.5-5.2-1.6c-1.3-1-1.9-2.4-1.9-4.1c0-1.7,0.6-3,1.8-4c1.2-1,3.1-1.5,5.7-1.5h6.2v-1.2c0-1.7-0.5-3-1.4-3.8
			c-0.9-0.9-2.3-1.3-4.1-1.3c-1.2,0-2.4,0.2-3.6,0.6c-1.1,0.4-2.1,1-2.9,1.7l-1.2-2c1-0.8,2.2-1.5,3.6-1.9c1.4-0.5,2.8-0.7,4.4-0.7
			C317.9,872.2,319.9,872.8,321.2,874.1z M318.3,888.9c1.1-0.7,1.9-1.7,2.4-2.9v-3.2h-6.1c-3.3,0-5,1.2-5,3.5c0,1.1,0.4,2,1.3,2.7
			s2.1,1,3.6,1C315.9,889.9,317.2,889.6,318.3,888.9z"/>
		<path class="st11" d="M330.4,864.3h2.6v27.5h-2.6V864.3z"/>
		<path class="st11" d="M357.3,882.9H341c0.1,2,0.9,3.7,2.3,4.9s3.2,1.9,5.3,1.9c1.2,0,2.3-0.2,3.3-0.6c1-0.4,1.9-1.1,2.6-1.9
			l1.5,1.7c-0.9,1-1.9,1.8-3.2,2.4c-1.3,0.5-2.7,0.8-4.3,0.8c-2,0-3.8-0.4-5.3-1.3c-1.5-0.9-2.7-2-3.6-3.5s-1.3-3.2-1.3-5.1
			c0-1.9,0.4-3.6,1.2-5.1c0.8-1.5,2-2.7,3.4-3.5s3.1-1.3,4.9-1.3s3.4,0.4,4.8,1.3c1.4,0.8,2.6,2,3.4,3.5s1.2,3.2,1.2,5.1
			L357.3,882.9z M343.2,876.2c-1.3,1.2-2,2.8-2.2,4.7h13.8c-0.2-1.9-0.9-3.5-2.2-4.7c-1.3-1.2-2.9-1.8-4.8-1.8
			C346,874.4,344.5,875,343.2,876.2z"/>
	</g>
	<g>
		<path class="st11" d="M521.4,838.1V864h-2.3l-16.6-21v21h-2.7v-25.9h2.3l16.7,21v-21H521.4z"/>
		<path class="st11" d="M532.2,862.9c-1.5-0.9-2.7-2-3.6-3.5c-0.9-1.5-1.3-3.2-1.3-5.1c0-1.9,0.4-3.6,1.3-5.1c0.9-1.5,2-2.7,3.6-3.5
			c1.5-0.8,3.2-1.3,5.1-1.3c1.9,0,3.6,0.4,5.1,1.3c1.5,0.8,2.7,2,3.5,3.5c0.9,1.5,1.3,3.2,1.3,5.1c0,1.9-0.4,3.6-1.3,5.1
			c-0.9,1.5-2,2.7-3.5,3.5c-1.5,0.9-3.2,1.3-5.1,1.3S533.7,863.8,532.2,862.9z M541,860.9c1.1-0.6,2-1.5,2.6-2.7s0.9-2.5,0.9-4
			s-0.3-2.8-0.9-4c-0.6-1.2-1.5-2.1-2.6-2.7c-1.1-0.6-2.3-0.9-3.7-0.9s-2.6,0.3-3.7,0.9c-1.1,0.6-2,1.5-2.6,2.7s-0.9,2.5-0.9,4
			s0.3,2.8,0.9,4c0.6,1.2,1.5,2.1,2.6,2.7c1.1,0.6,2.3,0.9,3.7,0.9C538.6,861.9,539.9,861.5,541,860.9z"/>
		<path class="st11" d="M557.8,845.4c1.2-0.7,2.7-1,4.5-1v2.6h-0.6c-2,0-3.7,0.6-4.8,1.9c-1.2,1.3-1.7,3-1.7,5.3v9.9h-2.6v-19.5h2.5
			v3.8C555.6,847,556.5,846.1,557.8,845.4z"/>
		<path class="st11" d="M597,846.5c1.4,1.4,2.1,3.5,2.1,6.2V864h-2.6v-11c0-2-0.5-3.6-1.5-4.6c-1-1.1-2.3-1.6-4.1-1.6
			c-2,0-3.6,0.6-4.8,1.9c-1.2,1.2-1.7,3-1.7,5.2V864h-2.6v-11c0-2-0.5-3.6-1.5-4.6c-1-1.1-2.4-1.6-4.2-1.6c-2,0-3.6,0.6-4.8,1.9
			c-1.2,1.2-1.8,3-1.8,5.2V864H567v-19.5h2.5v3.6c0.7-1.2,1.7-2.1,2.9-2.7c1.2-0.6,2.7-1,4.3-1s3,0.3,4.2,1s2.1,1.7,2.7,3.1
			c0.7-1.3,1.7-2.3,3.1-3c1.3-0.7,2.9-1.1,4.6-1.1C593.7,844.4,595.7,845.1,597,846.5z"/>
		<path class="st11" d="M618.9,846.3c1.4,1.3,2,3.2,2,5.6V864h-2.5v-3c-0.6,1-1.5,1.8-2.6,2.4s-2.5,0.9-4.1,0.9
			c-2.2,0-3.9-0.5-5.2-1.6c-1.3-1-1.9-2.4-1.9-4.1c0-1.7,0.6-3,1.8-4s3.1-1.5,5.7-1.5h6.2v-1.2c0-1.7-0.5-3-1.4-3.8
			c-0.9-0.9-2.3-1.3-4.1-1.3c-1.2,0-2.4,0.2-3.6,0.6c-1.1,0.4-2.1,1-2.9,1.7l-1.2-2c1-0.8,2.2-1.5,3.6-1.9c1.4-0.5,2.8-0.7,4.4-0.7
			C615.6,844.4,617.6,845,618.9,846.3z M616,861.1c1.1-0.7,1.9-1.7,2.4-2.9V855h-6.1c-3.3,0-5,1.2-5,3.5c0,1.1,0.4,2,1.3,2.7
			c0.9,0.7,2.1,1,3.6,1C613.6,862.1,614.9,861.8,616,861.1z"/>
		<path class="st11" d="M628.1,836.6h2.6V864h-2.6V836.6z"/>
	</g>
	<g>
		<path class="st11" d="M807.1,863.3c-1.8-0.6-3.1-1.4-4.1-2.4l1.1-2.1c0.9,0.9,2.2,1.7,3.7,2.3c1.6,0.6,3.2,0.9,4.8,0.9
			c2.3,0,4.1-0.4,5.2-1.3c1.2-0.9,1.7-2,1.7-3.3c0-1-0.3-1.9-0.9-2.5s-1.4-1.1-2.3-1.4c-0.9-0.3-2.2-0.7-3.8-1.1
			c-1.9-0.5-3.5-1-4.7-1.4c-1.2-0.5-2.2-1.2-3-2.1c-0.8-0.9-1.2-2.2-1.2-3.8c0-1.3,0.3-2.5,1-3.6s1.8-1.9,3.2-2.6
			c1.4-0.6,3.2-1,5.3-1c1.5,0,2.9,0.2,4.3,0.6c1.4,0.4,2.6,1,3.7,1.7l-0.9,2.2c-1.1-0.7-2.2-1.3-3.5-1.6c-1.2-0.4-2.4-0.5-3.6-0.5
			c-2.3,0-4,0.4-5.1,1.3c-1.1,0.9-1.7,2-1.7,3.4c0,1,0.3,1.9,0.9,2.5c0.6,0.6,1.4,1.1,2.4,1.4c0.9,0.3,2.2,0.7,3.8,1.1
			c1.9,0.5,3.4,0.9,4.6,1.4c1.2,0.5,2.2,1.1,3,2.1s1.2,2.2,1.2,3.8c0,1.3-0.4,2.5-1.1,3.6s-1.8,1.9-3.2,2.6
			c-1.5,0.6-3.2,0.9-5.4,0.9C810.7,864.2,808.9,863.9,807.1,863.3z"/>
		<path class="st11" d="M845.2,844.5V864h-2.5v-3.6c-0.7,1.2-1.6,2.1-2.8,2.8s-2.6,1-4.1,1c-2.5,0-4.5-0.7-6-2.1
			c-1.5-1.4-2.2-3.5-2.2-6.2v-11.3h2.6v11c0,2,0.5,3.6,1.5,4.7c1,1.1,2.5,1.6,4.3,1.6c2,0,3.7-0.6,4.8-1.9c1.2-1.2,1.8-3,1.8-5.2
			v-10.2L845.2,844.5L845.2,844.5z"/>
		<path class="st11" d="M857.9,845.4c1.2-0.7,2.7-1,4.5-1v2.6h-0.6c-2,0-3.7,0.6-4.8,1.9c-1.2,1.3-1.7,3-1.7,5.3v9.9h-2.6v-19.5h2.5
			v3.8C855.7,847,856.7,846.1,857.9,845.4z"/>
		<path class="st11" d="M882.1,845.6c1.5,0.8,2.6,2,3.5,3.5c0.8,1.5,1.3,3.2,1.3,5.1c0,1.9-0.4,3.7-1.3,5.2s-2,2.7-3.5,3.5
			s-3.1,1.2-5,1.2c-1.6,0-3-0.3-4.3-1s-2.3-1.6-3.1-2.9V871h-2.6v-26.6h2.5v3.8c0.8-1.3,1.8-2.3,3.1-3s2.8-1,4.4-1
			C879,844.4,880.7,844.8,882.1,845.6z M880.7,860.9c1.1-0.6,2-1.5,2.6-2.7s0.9-2.5,0.9-4s-0.3-2.8-0.9-3.9c-0.6-1.1-1.5-2-2.6-2.7
			c-1.1-0.6-2.3-1-3.7-1s-2.6,0.3-3.7,1c-1.1,0.6-2,1.5-2.6,2.7c-0.6,1.1-0.9,2.5-0.9,3.9c0,1.5,0.3,2.8,0.9,4
			c0.6,1.2,1.5,2.1,2.6,2.7c1.1,0.6,2.3,0.9,3.7,0.9C878.3,861.9,879.6,861.5,880.7,860.9z"/>
		<path class="st11" d="M895.1,862.9c-1.5-0.9-2.7-2-3.6-3.5c-0.9-1.5-1.3-3.2-1.3-5.1c0-1.9,0.4-3.6,1.3-5.1c0.9-1.5,2-2.7,3.6-3.5
			s3.2-1.3,5.1-1.3c1.9,0,3.6,0.4,5.1,1.3c1.5,0.8,2.7,2,3.5,3.5c0.9,1.5,1.3,3.2,1.3,5.1c0,1.9-0.4,3.6-1.3,5.1
			c-0.9,1.5-2,2.7-3.5,3.5c-1.5,0.9-3.2,1.3-5.1,1.3S896.6,863.8,895.1,862.9z M903.9,860.9c1.1-0.6,2-1.5,2.6-2.7s0.9-2.5,0.9-4
			s-0.3-2.8-0.9-4c-0.6-1.2-1.5-2.1-2.6-2.7c-1.1-0.6-2.3-0.9-3.7-0.9s-2.6,0.3-3.7,0.9c-1.1,0.6-2,1.5-2.6,2.7s-0.9,2.5-0.9,4
			s0.3,2.8,0.9,4c0.6,1.2,1.5,2.1,2.6,2.7s2.3,0.9,3.7,0.9C901.6,861.9,902.8,861.5,903.9,860.9z"/>
		<path class="st11" d="M915.4,839.7c-0.4-0.4-0.6-0.8-0.6-1.3s0.2-0.9,0.6-1.3c0.4-0.4,0.8-0.6,1.4-0.6c0.5,0,1,0.2,1.4,0.5
			c0.4,0.4,0.6,0.8,0.6,1.3s-0.2,1-0.6,1.4c-0.4,0.4-0.8,0.6-1.4,0.6C916.2,840.3,915.8,840.1,915.4,839.7z M915.4,844.5h2.6V864
			h-2.6V844.5z"/>
		<path class="st11" d="M943.1,836.6V864h-2.5v-3.8c-0.8,1.3-1.8,2.3-3.1,3s-2.8,1-4.4,1c-1.8,0-3.5-0.4-5-1.3
			c-1.5-0.8-2.6-2-3.5-3.5c-0.8-1.5-1.3-3.2-1.3-5.1c0-1.9,0.4-3.6,1.3-5.1c0.8-1.5,2-2.7,3.5-3.5s3.1-1.2,5-1.2c1.6,0,3,0.3,4.3,1
			s2.3,1.6,3.1,2.9v-11.7h2.6L943.1,836.6L943.1,836.6z M937,860.9c1.1-0.6,2-1.5,2.6-2.7s0.9-2.5,0.9-4s-0.3-2.8-0.9-4
			c-0.6-1.2-1.5-2.1-2.6-2.7c-1.1-0.6-2.3-0.9-3.7-0.9s-2.6,0.3-3.7,0.9c-1.1,0.6-2,1.5-2.6,2.7s-0.9,2.5-0.9,4s0.3,2.8,0.9,4
			c0.6,1.2,1.5,2.1,2.6,2.7c1.1,0.6,2.3,0.9,3.7,0.9C934.7,861.9,935.9,861.5,937,860.9z"/>
		<path class="st11" d="M951.2,863.5c-1.4-0.5-2.6-1-3.4-1.7l1.2-2.1c0.8,0.6,1.8,1.2,3.1,1.6s2.5,0.6,3.8,0.6
			c1.8,0,3.1-0.3,3.9-0.8c0.9-0.6,1.3-1.3,1.3-2.3c0-0.7-0.2-1.3-0.7-1.7s-1.1-0.7-1.8-0.9s-1.7-0.4-2.8-0.6
			c-1.6-0.3-2.8-0.6-3.8-0.9s-1.8-0.8-2.5-1.6c-0.7-0.7-1-1.8-1-3.1c0-1.6,0.7-3,2-4s3.2-1.6,5.7-1.6c1.3,0,2.5,0.2,3.8,0.5
			s2.3,0.8,3.1,1.3l-1.1,2.1c-1.6-1.1-3.5-1.7-5.7-1.7c-1.7,0-2.9,0.3-3.8,0.9c-0.9,0.6-1.3,1.4-1.3,2.3c0,0.7,0.2,1.3,0.7,1.8
			c0.5,0.4,1.1,0.8,1.8,1s1.7,0.4,3,0.6c1.6,0.3,2.8,0.6,3.7,0.9s1.7,0.8,2.4,1.5s1,1.7,1,3c0,1.7-0.7,3.1-2.1,4.1
			c-1.4,1-3.4,1.5-5.9,1.5C954.1,864.2,952.6,864,951.2,863.5z"/>
	</g>
	<g>
		<path class="st11" d="M1143.2,862.8c-2.1-1.1-3.7-2.7-4.9-4.7c-1.2-2-1.8-4.2-1.8-6.7s0.6-4.7,1.8-6.7c1.2-2,2.8-3.6,4.9-4.7
			c2.1-1.1,4.4-1.7,7-1.7s4.9,0.6,6.9,1.7s3.7,2.7,4.9,4.7c1.2,2,1.8,4.3,1.8,6.8s-0.6,4.7-1.8,6.8c-1.2,2-2.8,3.6-4.9,4.7
			c-2.1,1.1-4.4,1.7-6.9,1.7S1145.3,864,1143.2,862.8z M1155.7,860.7c1.7-0.9,2.9-2.2,3.9-3.8c0.9-1.6,1.4-3.5,1.4-5.5
			s-0.5-3.9-1.4-5.5s-2.2-2.9-3.9-3.8c-1.7-0.9-3.5-1.4-5.5-1.4s-3.9,0.5-5.6,1.4s-3,2.2-3.9,3.8c-1,1.6-1.4,3.5-1.4,5.5
			s0.5,3.9,1.4,5.5s2.3,2.9,3.9,3.8s3.5,1.4,5.6,1.4C1152.2,862.1,1154.1,861.6,1155.7,860.7z"/>
		<path class="st11" d="M1184.3,845.9c1.5,0.8,2.6,2,3.5,3.5c0.8,1.5,1.3,3.2,1.3,5.1c0,1.9-0.4,3.6-1.3,5.1c-0.8,1.5-2,2.7-3.5,3.5
			s-3.1,1.3-5,1.3c-1.6,0-3.1-0.3-4.4-1s-2.3-1.7-3.1-3v3.8h-2.5v-27.5h2.6v11.7c0.8-1.3,1.9-2.2,3.1-2.9c1.3-0.7,2.7-1,4.3-1
			C1181.2,844.7,1182.9,845.1,1184.3,845.9z M1182.9,861.2c1.1-0.6,2-1.5,2.6-2.7s0.9-2.5,0.9-4s-0.3-2.8-0.9-4s-1.5-2.1-2.6-2.7
			c-1.1-0.6-2.3-0.9-3.7-0.9c-1.4,0-2.6,0.3-3.7,0.9c-1.1,0.6-2,1.5-2.6,2.7s-0.9,2.5-0.9,4s0.3,2.8,0.9,4s1.5,2.1,2.6,2.7
			s2.3,0.9,3.7,0.9C1180.6,862.2,1181.8,861.8,1182.9,861.2z"/>
		<path class="st11" d="M1211.4,855.4h-16.3c0.1,2,0.9,3.7,2.3,4.9s3.2,1.9,5.3,1.9c1.2,0,2.3-0.2,3.3-0.6c1-0.4,1.9-1.1,2.6-1.9
			l1.5,1.7c-0.9,1-1.9,1.8-3.2,2.4c-1.3,0.5-2.7,0.8-4.3,0.8c-2,0-3.8-0.4-5.3-1.3c-1.5-0.9-2.7-2-3.6-3.5s-1.3-3.2-1.3-5.1
			c0-1.9,0.4-3.6,1.2-5.1c0.8-1.5,2-2.7,3.4-3.5s3.1-1.3,4.9-1.3s3.4,0.4,4.8,1.3s2.6,2,3.4,3.5s1.2,3.2,1.2,5.1L1211.4,855.4z
			 M1197.3,848.7c-1.3,1.2-2,2.8-2.2,4.7h13.8c-0.2-1.9-0.9-3.5-2.2-4.7c-1.3-1.2-2.9-1.8-4.8-1.8
			C1200.1,846.9,1198.5,847.5,1197.3,848.7z M1204.7,837.2h3.5l-6,4.6h-2.6L1204.7,837.2z"/>
		<path class="st11" d="M1217.5,863.8c-1.4-0.5-2.6-1-3.4-1.7l1.2-2.1c0.8,0.6,1.8,1.2,3.1,1.6s2.5,0.6,3.8,0.6
			c1.8,0,3.1-0.3,3.9-0.8c0.9-0.6,1.3-1.3,1.3-2.3c0-0.7-0.2-1.3-0.7-1.7s-1.1-0.7-1.8-0.9c-0.7-0.2-1.7-0.4-2.8-0.6
			c-1.6-0.3-2.8-0.6-3.8-0.9s-1.8-0.8-2.5-1.6c-0.7-0.7-1-1.8-1-3.1c0-1.6,0.7-3,2-4c1.4-1,3.2-1.6,5.7-1.6c1.3,0,2.5,0.2,3.8,0.5
			s2.3,0.8,3.1,1.3l-1.1,2.1c-1.6-1.1-3.5-1.7-5.7-1.7c-1.7,0-2.9,0.3-3.8,0.9c-0.9,0.6-1.3,1.4-1.3,2.3c0,0.7,0.2,1.3,0.7,1.8
			c0.5,0.4,1.1,0.8,1.8,1c0.7,0.2,1.7,0.4,3,0.6c1.6,0.3,2.8,0.6,3.7,0.9s1.7,0.8,2.4,1.5c0.7,0.7,1,1.7,1,3c0,1.7-0.7,3.1-2.1,4.1
			s-3.4,1.5-5.9,1.5C1220.4,864.5,1218.9,864.3,1217.5,863.8z"/>
		<path class="st11" d="M1234.8,840c-0.4-0.4-0.6-0.8-0.6-1.3s0.2-0.9,0.6-1.3c0.4-0.4,0.8-0.6,1.4-0.6c0.5,0,1,0.2,1.4,0.5
			c0.4,0.4,0.6,0.8,0.6,1.3s-0.2,1-0.6,1.4s-0.8,0.6-1.4,0.6C1235.7,840.6,1235.2,840.4,1234.8,840z M1234.9,844.8h2.6v19.5h-2.6
			V844.8z"/>
		<path class="st11" d="M1255.1,863.1c-0.5,0.4-1.1,0.8-1.8,1c-0.7,0.2-1.5,0.4-2.3,0.4c-1.8,0-3.2-0.5-4.2-1.5s-1.5-2.4-1.5-4.2
			V847h-3.5v-2.2h3.5v-4.3h2.6v4.3h5.9v2.2h-5.9v11.6c0,1.2,0.3,2,0.9,2.6s1.4,0.9,2.5,0.9c0.5,0,1.1-0.1,1.6-0.3s0.9-0.4,1.3-0.7
			L1255.1,863.1z"/>
		<path class="st11" d="M1276.1,855.4h-16.3c0.1,2,0.9,3.7,2.3,4.9s3.2,1.9,5.3,1.9c1.2,0,2.3-0.2,3.3-0.6c1-0.4,1.9-1.1,2.6-1.9
			l1.5,1.7c-0.9,1-1.9,1.8-3.2,2.4c-1.3,0.5-2.7,0.8-4.3,0.8c-2,0-3.8-0.4-5.3-1.3c-1.5-0.9-2.7-2-3.6-3.5s-1.3-3.2-1.3-5.1
			c0-1.9,0.4-3.6,1.2-5.1c0.8-1.5,2-2.7,3.4-3.5s3.1-1.3,4.9-1.3s3.4,0.4,4.8,1.3s2.6,2,3.4,3.5s1.2,3.2,1.2,5.1L1276.1,855.4z
			 M1262,848.7c-1.3,1.2-2,2.8-2.2,4.7h13.8c-0.2-1.9-0.9-3.5-2.2-4.7c-1.3-1.2-2.9-1.8-4.8-1.8
			C1264.8,846.9,1263.3,847.5,1262,848.7z M1269.4,837.2h3.5l-6,4.6h-2.6L1269.4,837.2z"/>
	</g>
	<g>
		<path class="st11" d="M1399.8,862.5c-2.1-1.1-3.7-2.7-4.9-4.7c-1.2-2-1.8-4.2-1.8-6.7s0.6-4.7,1.8-6.7c1.2-2,2.8-3.6,4.9-4.7
			c2.1-1.1,4.4-1.7,7-1.7s4.9,0.6,6.9,1.7c2.1,1.1,3.7,2.7,4.9,4.7s1.8,4.3,1.8,6.8s-0.6,4.7-1.8,6.8s-2.8,3.6-4.9,4.7
			c-2.1,1.1-4.4,1.7-6.9,1.7C1404.2,864.2,1401.8,863.7,1399.8,862.5z M1412.3,860.4c1.7-0.9,2.9-2.2,3.9-3.8s1.4-3.5,1.4-5.5
			s-0.5-3.9-1.4-5.5s-2.2-2.9-3.9-3.8c-1.7-0.9-3.5-1.4-5.5-1.4s-3.9,0.5-5.6,1.4s-3,2.2-3.9,3.8s-1.4,3.5-1.4,5.5s0.5,3.9,1.4,5.5
			c1,1.6,2.3,2.9,3.9,3.8s3.5,1.4,5.6,1.4C1408.8,861.8,1410.6,861.3,1412.3,860.4z"/>
		<path class="st11" d="M1440.9,845.6c1.5,0.8,2.6,2,3.5,3.5c0.8,1.5,1.3,3.2,1.3,5.1c0,1.9-0.4,3.6-1.3,5.1c-0.8,1.5-2,2.7-3.5,3.5
			s-3.1,1.3-5,1.3c-1.6,0-3.1-0.3-4.4-1s-2.3-1.7-3.1-3v3.8h-2.5v-27.5h2.6v11.7c0.8-1.3,1.9-2.2,3.1-2.9c1.3-0.7,2.7-1,4.3-1
			C1437.7,844.4,1439.4,844.8,1440.9,845.6z M1439.4,860.9c1.1-0.6,2-1.5,2.6-2.7s0.9-2.5,0.9-4s-0.3-2.8-0.9-4s-1.5-2.1-2.6-2.7
			c-1.1-0.6-2.3-0.9-3.7-0.9c-1.4,0-2.6,0.3-3.7,0.9c-1.1,0.6-2,1.5-2.6,2.7s-0.9,2.5-0.9,4s0.3,2.8,0.9,4s1.5,2.1,2.6,2.7
			c1.1,0.6,2.3,0.9,3.7,0.9C1437.1,861.9,1438.3,861.5,1439.4,860.9z"/>
		<path class="st11" d="M1467.9,855.1h-16.3c0.1,2,0.9,3.7,2.3,4.9s3.2,1.9,5.3,1.9c1.2,0,2.3-0.2,3.3-0.6c1-0.4,1.9-1.1,2.6-1.9
			l1.5,1.7c-0.9,1-1.9,1.8-3.2,2.4c-1.3,0.5-2.7,0.8-4.3,0.8c-2,0-3.8-0.4-5.3-1.3c-1.5-0.9-2.7-2-3.6-3.5s-1.3-3.2-1.3-5.1
			c0-1.9,0.4-3.6,1.2-5.1c0.8-1.5,2-2.7,3.4-3.5s3.1-1.3,4.9-1.3s3.4,0.4,4.8,1.3c1.4,0.8,2.6,2,3.4,3.5s1.2,3.2,1.2,5.1
			L1467.9,855.1z M1453.8,848.4c-1.3,1.2-2,2.8-2.2,4.7h13.8c-0.2-1.9-0.9-3.5-2.2-4.7c-1.3-1.2-2.9-1.8-4.8-1.8
			C1456.7,846.7,1455.1,847.3,1453.8,848.4z M1461.2,836.9h3.5l-6,4.6h-2.6L1461.2,836.9z"/>
		<path class="st11" d="M1474,863.5c-1.4-0.5-2.6-1-3.4-1.7l1.2-2.1c0.8,0.6,1.8,1.2,3.1,1.6s2.5,0.6,3.8,0.6c1.8,0,3.1-0.3,3.9-0.8
			c0.9-0.6,1.3-1.3,1.3-2.3c0-0.7-0.2-1.3-0.7-1.7s-1.1-0.7-1.8-0.9c-0.7-0.2-1.7-0.4-2.8-0.6c-1.6-0.3-2.8-0.6-3.8-0.9
			s-1.8-0.8-2.5-1.6c-0.7-0.7-1-1.8-1-3.1c0-1.6,0.7-3,2-4s3.2-1.6,5.7-1.6c1.3,0,2.5,0.2,3.8,0.5s2.3,0.8,3.1,1.3l-1.1,2.1
			c-1.6-1.1-3.5-1.7-5.7-1.7c-1.7,0-2.9,0.3-3.8,0.9c-0.9,0.6-1.3,1.4-1.3,2.3c0,0.7,0.2,1.3,0.7,1.8c0.5,0.4,1.1,0.8,1.8,1
			c0.7,0.2,1.7,0.4,3,0.6c1.6,0.3,2.8,0.6,3.7,0.9s1.7,0.8,2.4,1.5c0.7,0.7,1,1.7,1,3c0,1.7-0.7,3.1-2.1,4.1s-3.4,1.5-5.9,1.5
			C1477,864.2,1475.5,864,1474,863.5z"/>
		<path class="st11" d="M1491.4,839.7c-0.4-0.4-0.6-0.8-0.6-1.3s0.2-0.9,0.6-1.3c0.4-0.4,0.8-0.6,1.4-0.6c0.5,0,1,0.2,1.4,0.5
			c0.4,0.4,0.6,0.8,0.6,1.3s-0.2,1-0.6,1.4s-0.8,0.6-1.4,0.6C1492.2,840.3,1491.8,840.1,1491.4,839.7z M1491.4,844.5h2.6V864h-2.6
			V844.5z"/>
		<path class="st11" d="M1511.6,862.8c-0.5,0.4-1.1,0.8-1.8,1c-0.7,0.2-1.5,0.4-2.3,0.4c-1.8,0-3.2-0.5-4.2-1.5s-1.5-2.4-1.5-4.2
			v-11.8h-3.5v-2.2h3.5v-4.3h2.6v4.3h5.9v2.2h-5.9v11.6c0,1.2,0.3,2,0.9,2.6s1.4,0.9,2.5,0.9c0.5,0,1.1-0.1,1.6-0.3s0.9-0.4,1.3-0.7
			L1511.6,862.8z"/>
		<path class="st11" d="M1532.6,855.1h-16.3c0.1,2,0.9,3.7,2.3,4.9s3.2,1.9,5.3,1.9c1.2,0,2.3-0.2,3.3-0.6c1-0.4,1.9-1.1,2.6-1.9
			l1.5,1.7c-0.9,1-1.9,1.8-3.2,2.4c-1.3,0.5-2.7,0.8-4.3,0.8c-2,0-3.8-0.4-5.3-1.3c-1.5-0.9-2.7-2-3.6-3.5s-1.3-3.2-1.3-5.1
			c0-1.9,0.4-3.6,1.2-5.1c0.8-1.5,2-2.7,3.4-3.5s3.1-1.3,4.9-1.3s3.4,0.4,4.8,1.3c1.4,0.8,2.6,2,3.4,3.5s1.2,3.2,1.2,5.1
			L1532.6,855.1z M1518.5,848.4c-1.3,1.2-2,2.8-2.2,4.7h13.8c-0.2-1.9-0.9-3.5-2.2-4.7c-1.3-1.2-2.9-1.8-4.8-1.8
			C1521.4,846.7,1519.8,847.3,1518.5,848.4z M1525.9,836.9h3.5l-6,4.6h-2.6L1525.9,836.9z"/>
		<path class="st11" d="M1548.4,863.5c-1.4-0.5-2.6-1-3.4-1.7l1.2-2.1c0.8,0.6,1.8,1.2,3.1,1.6s2.5,0.6,3.8,0.6
			c1.8,0,3.1-0.3,3.9-0.8c0.9-0.6,1.3-1.3,1.3-2.3c0-0.7-0.2-1.3-0.7-1.7s-1.1-0.7-1.8-0.9c-0.7-0.2-1.7-0.4-2.8-0.6
			c-1.6-0.3-2.8-0.6-3.8-0.9s-1.8-0.8-2.5-1.6c-0.7-0.7-1-1.8-1-3.1c0-1.6,0.7-3,2-4c1.4-1,3.2-1.6,5.7-1.6c1.3,0,2.5,0.2,3.8,0.5
			s2.3,0.8,3.1,1.3l-1.1,2.1c-1.6-1.1-3.5-1.7-5.7-1.7c-1.7,0-2.9,0.3-3.8,0.9c-0.9,0.6-1.3,1.4-1.3,2.3c0,0.7,0.2,1.3,0.7,1.8
			c0.5,0.4,1.1,0.8,1.8,1c0.7,0.2,1.7,0.4,3,0.6c1.6,0.3,2.8,0.6,3.7,0.9s1.7,0.8,2.4,1.5c0.7,0.7,1,1.7,1,3c0,1.7-0.7,3.1-2.1,4.1
			s-3.4,1.5-5.9,1.5C1551.4,864.2,1549.9,864,1548.4,863.5z"/>
		<path class="st11" d="M1582.8,855.1h-16.3c0.1,2,0.9,3.7,2.3,4.9s3.2,1.9,5.3,1.9c1.2,0,2.3-0.2,3.3-0.6c1-0.4,1.9-1.1,2.6-1.9
			l1.5,1.7c-0.9,1-1.9,1.8-3.2,2.4c-1.3,0.5-2.7,0.8-4.3,0.8c-2,0-3.8-0.4-5.3-1.3c-1.5-0.9-2.7-2-3.6-3.5s-1.3-3.2-1.3-5.1
			c0-1.9,0.4-3.6,1.2-5.1c0.8-1.5,2-2.7,3.4-3.5s3.1-1.3,4.9-1.3s3.4,0.4,4.8,1.3s2.6,2,3.4,3.5s1.2,3.2,1.2,5.1L1582.8,855.1z
			 M1568.7,848.4c-1.3,1.2-2,2.8-2.2,4.7h13.8c-0.2-1.9-0.9-3.5-2.2-4.7c-1.3-1.2-2.9-1.8-4.8-1.8
			C1571.5,846.7,1569.9,847.3,1568.7,848.4z M1576,836.9h3.5l-6,4.6h-2.6L1576,836.9z"/>
		<path class="st11" d="M1604.2,844.5l-8.7,19.5h-2.7l-8.6-19.5h2.7l7.3,16.6l7.4-16.6H1604.2z"/>
		<path class="st11" d="M1624.2,855.1H1608c0.1,2,0.9,3.7,2.3,4.9s3.2,1.9,5.3,1.9c1.2,0,2.3-0.2,3.3-0.6c1-0.4,1.9-1.1,2.6-1.9
			l1.5,1.7c-0.9,1-1.9,1.8-3.2,2.4c-1.3,0.5-2.7,0.8-4.3,0.8c-2,0-3.8-0.4-5.3-1.3c-1.5-0.9-2.7-2-3.6-3.5s-1.3-3.2-1.3-5.1
			c0-1.9,0.4-3.6,1.2-5.1c0.8-1.5,2-2.7,3.4-3.5s3.1-1.3,4.9-1.3s3.4,0.4,4.8,1.3s2.6,2,3.4,3.5s1.2,3.2,1.2,5.1L1624.2,855.1z
			 M1610.1,848.4c-1.3,1.2-2,2.8-2.2,4.7h13.8c-0.2-1.9-0.9-3.5-2.2-4.7c-1.3-1.2-2.9-1.8-4.8-1.8
			C1613,846.7,1611.4,847.3,1610.1,848.4z M1608.7,836.9h3.5l5.1,4.6h-2.6L1608.7,836.9z"/>
		<path class="st11" d="M1634.9,845.4c1.2-0.7,2.7-1,4.5-1v2.6h-0.6c-2,0-3.7,0.6-4.8,1.9s-1.7,3-1.7,5.3v9.9h-2.6v-19.5h2.5v3.8
			C1632.8,847,1633.7,846.1,1634.9,845.4z"/>
		<path class="st11" d="M1661,855.1h-16.3c0.1,2,0.9,3.7,2.3,4.9s3.2,1.9,5.3,1.9c1.2,0,2.3-0.2,3.3-0.6c1-0.4,1.9-1.1,2.6-1.9
			l1.5,1.7c-0.9,1-1.9,1.8-3.2,2.4c-1.3,0.5-2.7,0.8-4.3,0.8c-2,0-3.8-0.4-5.3-1.3c-1.5-0.9-2.7-2-3.6-3.5s-1.3-3.2-1.3-5.1
			c0-1.9,0.4-3.6,1.2-5.1c0.8-1.5,2-2.7,3.4-3.5s3.1-1.3,4.9-1.3s3.4,0.4,4.8,1.3c1.4,0.8,2.6,2,3.4,3.5s1.2,3.2,1.2,5.1L1661,855.1
			z M1646.8,848.4c-1.3,1.2-2,2.8-2.2,4.7h13.8c-0.2-1.9-0.9-3.5-2.2-4.7c-1.3-1.2-2.9-1.8-4.8-1.8
			C1649.7,846.7,1648.1,847.3,1646.8,848.4z"/>
	</g>
	<g>
		<path class="st11" d="M410.9,724.8v35.6h-3.7V728h-8.4v-3.3L410.9,724.8L410.9,724.8z"/>
		<path class="st11" d="M445,745.1c1.2,1.5,1.8,3.3,1.8,5.4c0,2.1-0.6,3.9-1.7,5.4s-2.7,2.7-4.8,3.6c-2.1,0.8-4.5,1.2-7.4,1.2
			c-4.3,0-7.6-0.9-10.1-2.8c-2.4-1.8-3.7-4.3-3.7-7.5c0-2.1,0.6-3.9,1.8-5.4c1.2-1.5,2.9-2.6,5.1-3.3c-1.8-0.7-3.2-1.7-4.2-3.1
			c-1-1.3-1.4-2.9-1.4-4.8c0-2.9,1.1-5.2,3.4-6.9s5.3-2.5,9.1-2.5c2.5,0,4.7,0.4,6.6,1.1c1.9,0.8,3.4,1.9,4.4,3.3
			c1.1,1.4,1.6,3.1,1.6,5c0,1.8-0.5,3.4-1.5,4.8c-1,1.3-2.4,2.4-4.2,3.1C442.1,742.5,443.8,743.6,445,745.1z M440.3,755.7
			c1.8-1.3,2.7-3,2.7-5.2s-0.9-3.9-2.7-5.2c-1.8-1.3-4.3-1.9-7.4-1.9s-5.6,0.6-7.4,1.9s-2.7,3-2.7,5.2s0.9,4,2.6,5.3
			c1.8,1.3,4.2,1.9,7.4,1.9S438.6,757,440.3,755.7z M426.5,738.7c1.6,1.2,3.7,1.7,6.5,1.7c2.7,0,4.9-0.6,6.5-1.7
			c1.6-1.2,2.4-2.7,2.4-4.6c0-2-0.8-3.6-2.4-4.7c-1.6-1.2-3.8-1.7-6.4-1.7c-2.7,0-4.9,0.6-6.4,1.7c-1.6,1.2-2.4,2.7-2.4,4.7
			C424.1,736,424.9,737.5,426.5,738.7z"/>
	</g>
	<g>
		<path class="st11" d="M731.1,757.2v3.3h-25v-2.6l14.8-14.5c1.9-1.8,3.1-3.4,3.8-4.8c0.7-1.3,1-2.7,1-4c0-2.1-0.7-3.7-2.2-4.9
			c-1.4-1.2-3.5-1.8-6.2-1.8c-4.2,0-7.4,1.3-9.7,4l-2.6-2.2c1.4-1.6,3.2-2.9,5.3-3.8c2.2-0.9,4.6-1.3,7.3-1.3c3.6,0,6.5,0.9,8.6,2.6
			c2.1,1.7,3.2,4.1,3.2,7.1c0,1.8-0.4,3.6-1.2,5.3s-2.4,3.7-4.6,5.9l-12.1,11.9h19.6L731.1,757.2L731.1,757.2z"/>
		<path class="st11" d="M756.3,742.2c2.4,1.9,3.5,4.4,3.5,7.8c0,2.1-0.5,3.9-1.5,5.6c-1,1.6-2.4,2.9-4.4,3.8s-4.3,1.4-7.1,1.4
			c-2.5,0-5-0.4-7.3-1.2s-4.1-1.9-5.5-3.3l1.8-2.9c1.2,1.2,2.8,2.2,4.7,3s4,1.1,6.3,1.1c3,0,5.2-0.7,6.8-2s2.4-3.1,2.4-5.3
			c0-2.4-0.9-4.3-2.7-5.6s-4.9-1.9-9.2-1.9h-7.6l1.8-17.9H758v3.3h-16.3l-1.2,11.4h4.6C750.2,739.4,753.9,740.3,756.3,742.2z"/>
	</g>
	<g>
		<path class="st11" d="M1038.3,743.1c2,1.8,2.9,4.2,2.9,7.1c0,2-0.5,3.8-1.5,5.4c-1,1.6-2.4,2.8-4.4,3.7c-1.9,0.9-4.3,1.4-7.1,1.4
			c-2.6,0-5-0.4-7.3-1.2s-4.1-1.9-5.5-3.3l1.8-2.9c1.2,1.2,2.8,2.2,4.7,3s4.1,1.1,6.3,1.1c2.9,0,5.2-0.6,6.8-1.9
			c1.6-1.3,2.4-3,2.4-5.3c0-2.2-0.8-3.9-2.4-5.2s-4-1.9-7.2-1.9h-2.5v-2.7l9.9-12.4H1017v-3.3h22.9v2.6l-10.1,12.7
			C1033.5,740.2,1036.4,741.3,1038.3,743.1z"/>
		<path class="st11" d="M1053.2,758.5c-2.2-1.5-3.8-3.6-5-6.3s-1.8-5.9-1.8-9.6s0.6-6.9,1.8-9.7c1.2-2.7,2.9-4.8,5-6.3
			c2.2-1.5,4.6-2.2,7.4-2.2s5.2,0.7,7.4,2.2c2.2,1.5,3.8,3.6,5.1,6.3c1.2,2.7,1.8,6,1.8,9.7s-0.6,6.9-1.8,9.6
			c-1.2,2.7-2.9,4.8-5.1,6.3s-4.6,2.2-7.4,2.2C1057.8,760.7,1055.4,760,1053.2,758.5z M1066.1,755.6c1.6-1.2,2.8-2.8,3.7-5
			c0.9-2.2,1.3-4.9,1.3-8s-0.4-5.8-1.3-8s-2.1-3.9-3.7-5c-1.6-1.2-3.4-1.7-5.5-1.7s-3.9,0.6-5.5,1.7c-1.6,1.2-2.8,2.8-3.7,5
			c-0.9,2.2-1.3,4.9-1.3,8s0.4,5.8,1.3,8s2.1,3.9,3.7,5c1.6,1.2,3.4,1.7,5.5,1.7S1064.5,756.8,1066.1,755.6z"/>
	</g>
	<g>
		<path class="st11" d="M1355.7,743.1c2,1.8,2.9,4.2,2.9,7.1c0,2-0.5,3.8-1.5,5.4c-1,1.6-2.4,2.8-4.4,3.7c-1.9,0.9-4.3,1.4-7.1,1.4
			c-2.6,0-5-0.4-7.3-1.2s-4.1-1.9-5.5-3.3l1.8-2.9c1.2,1.2,2.8,2.2,4.7,3s4.1,1.1,6.3,1.1c2.9,0,5.2-0.6,6.8-1.9
			c1.6-1.3,2.4-3,2.4-5.3c0-2.2-0.8-3.9-2.4-5.2s-4-1.9-7.2-1.9h-2.5v-2.7l9.9-12.4h-18.2v-3.3h22.9v2.6l-10.1,12.7
			C1350.9,740.2,1353.8,741.3,1355.7,743.1z"/>
		<path class="st11" d="M1383.9,742.2c2.4,1.9,3.5,4.4,3.5,7.8c0,2.1-0.5,3.9-1.5,5.6c-1,1.6-2.4,2.9-4.4,3.8
			c-1.9,0.9-4.3,1.4-7.1,1.4c-2.5,0-5-0.4-7.3-1.2s-4.1-1.9-5.5-3.3l1.8-2.9c1.2,1.2,2.8,2.2,4.7,3c1.9,0.8,4,1.1,6.3,1.1
			c3,0,5.2-0.7,6.8-2c1.6-1.3,2.4-3.1,2.4-5.3c0-2.4-0.9-4.3-2.7-5.6c-1.8-1.3-4.9-1.9-9.2-1.9h-7.6l1.8-17.9h19.5v3.3h-16.3
			l-1.2,11.4h4.6C1377.8,739.4,1381.6,740.3,1383.9,742.2z"/>
	</g>
	<g>
		<path class="st11" d="M28.6,717.4h10v43h-10C28.6,760.4,28.6,717.4,28.6,717.4z"/>
		<path class="st11" d="M87.9,760.4l-0.1-25.8l-12.7,21.3h-4.5L58,735.2v25.3h-9.3v-43H57l16.1,26.7L89,717.4h8.2l0.1,43H87.9z"/>
		<path class="st11" d="M116.2,758.3c-3.5-1.9-6.3-4.5-8.4-7.9c-2-3.4-3-7.2-3-11.5s1-8.1,3-11.5s4.8-6,8.4-7.9
			c3.5-1.9,7.5-2.9,12-2.9c3.7,0,7.1,0.7,10.1,2s5.5,3.2,7.6,5.7l-6.4,5.9c-2.9-3.4-6.5-5-10.8-5c-2.7,0-5,0.6-7.1,1.8
			s-3.7,2.8-4.9,4.9s-1.8,4.5-1.8,7.1c0,2.7,0.6,5,1.8,7.1s2.8,3.7,4.9,4.9s4.5,1.8,7.1,1.8c4.3,0,7.9-1.7,10.8-5.1l6.4,5.9
			c-2,2.5-4.6,4.4-7.6,5.7s-6.4,2-10.1,2C123.7,761.1,119.7,760.2,116.2,758.3z"/>
	</g>
</g>
</svg>
